<?xml version="1.0" encoding="UTF-8" standalone="no"?>
<!-- Created with Inkscape (http://www.inkscape.org/) -->

<svg
   width="256mm"
   height="256mm"
   viewBox="0 0 256 256"
   version="1.1"
   id="svg1"
   xml:space="preserve"
   inkscape:version="1.3.2 (091e20e, 2023-11-25, custom)"
   sodipodi:docname="starred_frame.svg"
   inkscape:export-filename="starred_frame2.svg"
   inkscape:export-xdpi="96"
   inkscape:export-ydpi="96"
   xmlns:inkscape="http://www.inkscape.org/namespaces/inkscape"
   xmlns:sodipodi="http://sodipodi.sourceforge.net/DTD/sodipodi-0.dtd"
   xmlns="http://www.w3.org/2000/svg"
   xmlns:svg="http://www.w3.org/2000/svg"
   xmlns:rdf="http://www.w3.org/1999/02/22-rdf-syntax-ns#"
   xmlns:cc="http://creativecommons.org/ns#"
   xmlns:dc="http://purl.org/dc/elements/1.1/"><title
     id="title7">Starred Frame</title><sodipodi:namedview
     id="namedview1"
     pagecolor="#505050"
     bordercolor="#eeeeee"
     borderopacity="1"
     inkscape:showpageshadow="0"
     inkscape:pageopacity="0"
     inkscape:pagecheckerboard="0"
     inkscape:deskcolor="#505050"
     inkscape:document-units="mm"
     inkscape:zoom="0.27118408"
     inkscape:cx="81.125706"
     inkscape:cy="816.78836"
     inkscape:window-width="1853"
     inkscape:window-height="1057"
     inkscape:window-x="-8"
     inkscape:window-y="-8"
     inkscape:window-maximized="1"
     inkscape:current-layer="layer1" /><defs
     id="defs1"><inkscape:path-effect
       effect="fillet_chamfer"
       id="path-effect7"
       is_visible="true"
       lpeversion="1"
       nodesatellites_param="F,0,0,1,0,0.26458333,0,1 @ F,0,0,1,0,0.26458333,0,1 @ F,0,0,1,0,0.26458333,0,1 @ F,0,0,1,0,0.26458333,0,1 @ F,0,0,1,0,0.26458333,0,1 @ F,0,0,1,0,0.26458333,0,1 @ F,0,0,1,0,0.26458333,0,1 @ F,0,0,1,0,0.26458333,0,1 @ F,0,0,1,0,0.26458333,0,1 @ F,0,0,1,0,0.26458333,0,1 @ F,0,0,1,0,0.26458333,0,1 @ F,0,0,1,0,0.26458333,0,1 @ F,0,0,1,0,0.26458333,0,1 @ F,0,0,1,0,0.26458333,0,1 @ F,0,0,1,0,0.26458333,0,1 @ F,0,0,1,0,0.26458333,0,1"
       radius="1"
       unit="px"
       method="auto"
       mode="F"
       chamfer_steps="1"
       flexible="false"
       use_knot_distance="true"
       apply_no_radius="true"
       apply_with_radius="true"
       only_selected="false"
       hide_knots="false" /><inkscape:path-effect
       effect="fillet_chamfer"
       id="path-effect6"
       is_visible="true"
       lpeversion="1"
       nodesatellites_param="F,0,0,1,0,0,0,1 @ F,0,0,1,0,0,0,1 @ F,0,0,1,0,0,0,1 @ F,0,0,1,0,0,0,1 @ F,0,0,1,0,0,0,1 @ F,0,0,1,0,0,0,1 @ F,0,0,1,0,0,0,1 @ F,0,0,1,0,0,0,1 @ F,0,0,1,0,0,0,1 @ F,0,0,1,0,0,0,1 @ F,0,0,1,0,0,0,1 @ F,0,0,1,0,0,0,1 @ F,0,0,1,0,0,0,1 @ F,0,0,1,0,0,0,1 @ F,0,0,1,0,0,0,1 @ F,0,0,1,0,0,0,1"
       radius="256"
       unit="px"
       method="auto"
       mode="F"
       chamfer_steps="1"
       flexible="false"
       use_knot_distance="true"
       apply_no_radius="true"
       apply_with_radius="true"
       only_selected="false"
       hide_knots="false" /><inkscape:path-effect
       effect="fillet_chamfer"
       id="path-effect5"
       is_visible="true"
       lpeversion="1"
       nodesatellites_param="F,0,0,1,0,67.733333,0,1 @ F,0,0,1,0,67.733333,0,1 @ F,0,0,1,0,67.733333,0,1 @ F,0,0,1,0,67.733333,0,1"
       radius="256"
       unit="px"
       method="auto"
       mode="F"
       chamfer_steps="1"
       flexible="false"
       use_knot_distance="true"
       apply_no_radius="true"
       apply_with_radius="true"
       only_selected="false"
       hide_knots="false" /></defs><g
     inkscape:label="Decorations"
     inkscape:groupmode="layer"
     id="layer1"><path
       id="rect6"
       style="opacity:1;fill:none;stroke:#557edd;stroke-width:6.35;stroke-opacity:0.5"
       d="M 82.467,82.202417 V 37.198383 A 0.26458333,0.26458333 135 0 1 82.731583,36.9338 h 45.003837 45.533 a 0.26458333,0.26458333 45 0 1 0.26458,0.264583 v 45.004034 a 0.26458275,0.26458275 44.999937 0 0 0.26458,0.264582 l 45.00404,-9.8e-5 a 0.26458275,0.26458275 44.999937 0 1 0.26458,0.264582 v 45.003937 45.5331 a 0.26458275,0.26458275 135.00006 0 1 -0.26458,0.26458 l -45.00404,-1e-4 a 0.26458217,0.26458217 135 0 0 -0.26458,0.26458 l 1e-4,45.00404 a 0.26458275,0.26458275 134.99994 0 1 -0.26458,0.26458 H 128.26458 82.731483 a 0.26458275,0.26458275 45.000063 0 1 -0.264582,-0.26458 l 9.8e-5,-45.00404 A 0.26458275,0.26458275 45.000063 0 0 82.202417,173.533 H 37.198383 A 0.26458333,0.26458333 45 0 1 36.9338,173.26842 V 128.26458 82.731483 a 0.26458275,0.26458275 135.00006 0 1 0.264583,-0.264582 l 45.004034,9.8e-5 A 0.26458275,0.26458275 135.00006 0 0 82.467,82.202417 Z"
       sodipodi:nodetypes="ccccccccccccccccc"
       inkscape:path-effect="#path-effect7"
       inkscape:original-d="M 82.467,82.467 V 36.9338 H 128 173.533 V 82.467 l 45.5332,-1e-4 V 128 173.5331 l -45.5332,-1e-4 1e-4,45.5332 H 128 82.4669 l 1e-4,-45.5332 H 36.9338 V 128 82.4669 Z"
       inkscape:label="frame"
       transform="matrix(0.95147229,0,0,0.95147229,6.2115471,6.2115471)" /><g
       style="fill:#f0d342;fill-opacity:0.5"
       id="g1"
       transform="matrix(0.65173235,0,0,0.65173235,190.0913,190.29497)"
       inkscape:label="star_br"><path
         d="M 41.5246,72.5311 34.7005,58.0256 c -1.7397,-3.698 -4.715,-6.6733 -8.413,-8.413 L 11.782,42.7885 c -0.1496,-0.0704 -0.2761,-0.1819 -0.3646,-0.3214 -0.0886,-0.1396 -0.1357,-0.3015 -0.1357,-0.4668 0,-0.1653 0.0471,-0.3272 0.1357,-0.4668 0.0885,-0.1396 0.215,-0.251 0.3646,-0.3214 L 26.2875,34.388 c 3.698,-1.7397 6.6733,-4.715 8.413,-8.413 l 6.8241,-14.5055 c 0.0704,-0.1496 0.1818,-0.2761 0.3214,-0.3646 0.1396,-0.0886 0.3015,-0.1357 0.4668,-0.1357 0.1653,0 0.3272,0.0471 0.4668,0.1357 0.1395,0.0885 0.251,0.215 0.3214,0.3646 l 6.8241,14.5055 c 1.7397,3.698 4.715,6.6733 8.413,8.413 l 14.5055,6.8241 c 0.1496,0.0704 0.276,0.1818 0.3646,0.3214 0.0886,0.1396 0.1356,0.3015 0.1356,0.4668 0,0.1653 -0.047,0.3272 -0.1356,0.4668 -0.0886,0.1395 -0.215,0.251 -0.3646,0.3214 l -14.5055,6.8241 c -3.698,1.7397 -6.6733,4.715 -8.413,8.413 L 43.101,72.5311 c -0.0704,0.1496 -0.1819,0.276 -0.3214,0.3646 -0.1396,0.0886 -0.3015,0.1357 -0.4668,0.1357 -0.1653,0 -0.3272,-0.0471 -0.4668,-0.1357 -0.1396,-0.0886 -0.251,-0.215 -0.3214,-0.3646 z"
         fill="#ffffff"
         id="path1"
         style="fill:#f0d342;fill-opacity:0.5" /></g><g
       style="fill:#f0d342;fill-opacity:0.5"
       id="g3"
       transform="matrix(0.65173235,0,0,0.65173235,10.755522,190.29497)"
       inkscape:label="star_bl"><path
         d="M 41.5246,72.5311 34.7005,58.0256 c -1.7397,-3.698 -4.715,-6.6733 -8.413,-8.413 L 11.782,42.7885 c -0.1496,-0.0704 -0.2761,-0.1819 -0.3646,-0.3214 -0.0886,-0.1396 -0.1357,-0.3015 -0.1357,-0.4668 0,-0.1653 0.0471,-0.3272 0.1357,-0.4668 0.0885,-0.1396 0.215,-0.251 0.3646,-0.3214 L 26.2875,34.388 c 3.698,-1.7397 6.6733,-4.715 8.413,-8.413 l 6.8241,-14.5055 c 0.0704,-0.1496 0.1818,-0.2761 0.3214,-0.3646 0.1396,-0.0886 0.3015,-0.1357 0.4668,-0.1357 0.1653,0 0.3272,0.0471 0.4668,0.1357 0.1395,0.0885 0.251,0.215 0.3214,0.3646 l 6.8241,14.5055 c 1.7397,3.698 4.715,6.6733 8.413,8.413 l 14.5055,6.8241 c 0.1496,0.0704 0.276,0.1818 0.3646,0.3214 0.0886,0.1396 0.1356,0.3015 0.1356,0.4668 0,0.1653 -0.047,0.3272 -0.1356,0.4668 -0.0886,0.1395 -0.215,0.251 -0.3646,0.3214 l -14.5055,6.8241 c -3.698,1.7397 -6.6733,4.715 -8.413,8.413 L 43.101,72.5311 c -0.0704,0.1496 -0.1819,0.276 -0.3214,0.3646 -0.1396,0.0886 -0.3015,0.1357 -0.4668,0.1357 -0.1653,0 -0.3272,-0.0471 -0.4668,-0.1357 -0.1396,-0.0886 -0.251,-0.215 -0.3214,-0.3646 z"
         fill="#ffffff"
         id="path3"
         style="fill:#f0d342;fill-opacity:0.5" /></g><g
       style="fill:#f0d342;fill-opacity:0.5"
       id="g4"
       transform="matrix(0.65173235,0,0,0.65173235,10.755522,10.959188)"
       inkscape:label="star_tl"><path
         d="M 41.5246,72.5311 34.7005,58.0256 c -1.7397,-3.698 -4.715,-6.6733 -8.413,-8.413 L 11.782,42.7885 c -0.1496,-0.0704 -0.2761,-0.1819 -0.3646,-0.3214 -0.0886,-0.1396 -0.1357,-0.3015 -0.1357,-0.4668 0,-0.1653 0.0471,-0.3272 0.1357,-0.4668 0.0885,-0.1396 0.215,-0.251 0.3646,-0.3214 L 26.2875,34.388 c 3.698,-1.7397 6.6733,-4.715 8.413,-8.413 l 6.8241,-14.5055 c 0.0704,-0.1496 0.1818,-0.2761 0.3214,-0.3646 0.1396,-0.0886 0.3015,-0.1357 0.4668,-0.1357 0.1653,0 0.3272,0.0471 0.4668,0.1357 0.1395,0.0885 0.251,0.215 0.3214,0.3646 l 6.8241,14.5055 c 1.7397,3.698 4.715,6.6733 8.413,8.413 l 14.5055,6.8241 c 0.1496,0.0704 0.276,0.1818 0.3646,0.3214 0.0886,0.1396 0.1356,0.3015 0.1356,0.4668 0,0.1653 -0.047,0.3272 -0.1356,0.4668 -0.0886,0.1395 -0.215,0.251 -0.3646,0.3214 l -14.5055,6.8241 c -3.698,1.7397 -6.6733,4.715 -8.413,8.413 L 43.101,72.5311 c -0.0704,0.1496 -0.1819,0.276 -0.3214,0.3646 -0.1396,0.0886 -0.3015,0.1357 -0.4668,0.1357 -0.1653,0 -0.3272,-0.0471 -0.4668,-0.1357 -0.1396,-0.0886 -0.251,-0.215 -0.3214,-0.3646 z"
         fill="#ffffff"
         id="path4"
         style="fill:#f0d342;fill-opacity:0.5" /></g><g
       style="fill:#f0d342;fill-opacity:0.5"
       id="g5"
       transform="matrix(0.65173235,0,0,0.65173235,190.0913,10.959188)"
       inkscape:label="star_tr"><path
         d="M 41.5246,72.5311 34.7005,58.0256 c -1.7397,-3.698 -4.715,-6.6733 -8.413,-8.413 L 11.782,42.7885 c -0.1496,-0.0704 -0.2761,-0.1819 -0.3646,-0.3214 -0.0886,-0.1396 -0.1357,-0.3015 -0.1357,-0.4668 0,-0.1653 0.0471,-0.3272 0.1357,-0.4668 0.0885,-0.1396 0.215,-0.251 0.3646,-0.3214 L 26.2875,34.388 c 3.698,-1.7397 6.6733,-4.715 8.413,-8.413 l 6.8241,-14.5055 c 0.0704,-0.1496 0.1818,-0.2761 0.3214,-0.3646 0.1396,-0.0886 0.3015,-0.1357 0.4668,-0.1357 0.1653,0 0.3272,0.0471 0.4668,0.1357 0.1395,0.0885 0.251,0.215 0.3214,0.3646 l 6.8241,14.5055 c 1.7397,3.698 4.715,6.6733 8.413,8.413 l 14.5055,6.8241 c 0.1496,0.0704 0.276,0.1818 0.3646,0.3214 0.0886,0.1396 0.1356,0.3015 0.1356,0.4668 0,0.1653 -0.047,0.3272 -0.1356,0.4668 -0.0886,0.1395 -0.215,0.251 -0.3646,0.3214 l -14.5055,6.8241 c -3.698,1.7397 -6.6733,4.715 -8.413,8.413 L 43.101,72.5311 c -0.0704,0.1496 -0.1819,0.276 -0.3214,0.3646 -0.1396,0.0886 -0.3015,0.1357 -0.4668,0.1357 -0.1653,0 -0.3272,-0.0471 -0.4668,-0.1357 -0.1396,-0.0886 -0.251,-0.215 -0.3214,-0.3646 z"
         fill="#ffffff"
         id="path5"
         style="fill:#f0d342;fill-opacity:0.5" /></g></g><metadata
     id="metadata7"><rdf:RDF><cc:Work
         rdf:about=""><dc:title>Starred Frame</dc:title></cc:Work></rdf:RDF></metadata></svg>
