<svg width="140" height="180" viewBox="0 0 140 180" fill="none" xmlns="http://www.w3.org/2000/svg">
<path opacity="0.4" d="M-30.9576 -115.066L-151.892 -67.3696C-154.461 -66.3565 -155.127 -61.9447 -153.38 -57.5157L-58.4933 183.068C-56.7465 187.497 -53.248 190.266 -50.6791 189.253L70.2549 141.557C72.8238 140.544 73.4901 136.132 71.7433 131.703L-23.1434 -108.881C-24.8903 -113.31 -28.3888 -116.079 -30.9576 -115.066Z" fill="#1A1A1A" fill-opacity="0.2"/>
<path opacity="0.2" d="M210.103 89.2162L156.7 -23.148C155.566 -25.5348 151.987 -26.2057 148.706 -24.6464L-29.5105 60.0531C-32.7914 61.6123 -34.5315 64.8113 -33.3971 67.1981L20.0053 179.562C21.1396 181.949 24.7189 182.62 27.9998 181.061L206.216 96.3612C209.497 94.8019 211.237 91.603 210.103 89.2162Z" fill="#1A1A1A" fill-opacity="0.2"/>
</svg>
