<?xml version="1.0" encoding="UTF-8" standalone="no"?>
<svg
   width="68"
   height="68"
   viewBox="0 0 68 68"
   fill="none"
   version="1.1"
   id="svg8"
   sodipodi:docname="logo_a_flat_white_68.svg"
   inkscape:version="1.3.1 (91b66b0783, 2023-11-16)"
   xmlns:inkscape="http://www.inkscape.org/namespaces/inkscape"
   xmlns:sodipodi="http://sodipodi.sourceforge.net/DTD/sodipodi-0.dtd"
   xmlns="http://www.w3.org/2000/svg"
   xmlns:svg="http://www.w3.org/2000/svg">
  <defs
     id="defs8" />
  <sodipodi:namedview
     id="namedview8"
     pagecolor="#c7c7c7"
     bordercolor="#666666"
     borderopacity="1.0"
     inkscape:showpageshadow="2"
     inkscape:pageopacity="0.0"
     inkscape:pagecheckerboard="0"
     inkscape:deskcolor="#d1d1d1"
     inkscape:zoom="3.9403269"
     inkscape:cx="13.323768"
     inkscape:cy="59.766614"
     inkscape:window-width="1853"
     inkscape:window-height="1057"
     inkscape:window-x="-8"
     inkscape:window-y="-8"
     inkscape:window-maximized="1"
     inkscape:current-layer="svg8" />
  <path
     d="m 33.827597,5.7722656 c -0.2424,0.09287 -0.861,0.51 -1.2199,0.82167 -0.5194,0.45018 -1.1003,1.06407 -2.0148,2.12342 -1.2042,1.3945904 -1.9361,2.1407904 -2.794,2.8427904 -0.3542,0.2896 -0.5179,0.4108 -0.9035,0.6658 -0.4282,0.2834 -0.5179,0.3337 -0.9696,0.5604 l -0.4975,0.2487 -0.554,0.1747 -0.5525,0.1747 -0.5635,0.0772 -0.5636,0.0771 -0.5839,0.011 c -0.5825,0.0095 -0.5856,0.0095 -1.1963,-0.0472 -1.0531,-0.096 -1.8354,-0.2345 -3.7605,-0.6627 -1.1617,-0.2597 -1.5662,-0.3305 -1.9912,-0.3557 -0.2818,-0.0158 -0.3243,-0.0142 -0.5116,0.0157 -0.1967,0.0299 -0.2109,0.0346 -0.3447,0.1149 l -0.1401,0.085 -0.0519,0.1197 -0.0504,0.1196 0.0346,0.1574 c 0.0283,0.1369 0.0472,0.1794 0.1464,0.3447 0.3982,0.6627 1.5379,1.5709 3.0757,2.4493 1.412,0.8075 2.9168,1.4402 4.3492,1.829 0.5462,0.148 0.6501,0.1716 1.1743,0.2598 0.5603,0.0944 0.5887,0.0976 1.1097,0.1243 0.5305,0.0268 0.5415,0.0268 1.0625,-0.0079 0.4706,-0.0299 0.5793,-0.0425 0.9995,-0.1133 1.2845,-0.2204 2.5862,-0.6957 4.0454,-1.478 1.2026,-0.6438 1.9345,-1.0909 2.7389,-1.6701 0.1826,-0.1323 0.3888,-0.2676 0.4596,-0.3038 0.1149,-0.0567 0.1417,-0.0646 0.2409,-0.0646 0.0991,0 0.1259,0.0079 0.2408,0.0646 0.0724,0.0362 0.3006,0.1873 0.5084,0.3352 0.6076,0.4392 1.179,0.7997 1.9739,1.2451 1.5615,0.8784 2.6366,1.3459 3.8171,1.6638 0.6974,0.1874 1.2325,0.2755 1.9424,0.3211 0.5211,0.0347 0.5289,0.0347 1.0704,0.0063 0.5321,-0.0267 0.5572,-0.0299 1.1034,-0.1212 0.4927,-0.085 0.6281,-0.1149 1.1491,-0.2534 0.7697,-0.2078 1.5253,-0.4722 2.3375,-0.8217 2.3234,-0.9963 4.5208,-2.4823 5.111,-3.4535 0.0992,-0.1637 0.1165,-0.2046 0.1464,-0.3447 l 0.0347,-0.159 -0.0504,-0.1228 -0.052,-0.1243 -0.1432,-0.085 c -0.1369,-0.0803 -0.1527,-0.085 -0.3526,-0.1165 -0.1904,-0.0299 -0.2329,-0.0315 -0.5147,-0.0157 -0.4707,0.0267 -0.839,0.0944 -2.3533,0.436 -1.4387,0.3243 -2.4209,0.4927 -3.4047,0.5824 l -0.617,0.0567 -0.5871,-0.0111 -0.5856,-0.0094 -0.5525,-0.0756 -0.5541,-0.0771 -0.5399,-0.1716 -0.5415,-0.1731 -0.4958,-0.2424 c -0.4659,-0.2298 -0.5257,-0.2629 -0.9838,-0.5667 -0.4108,-0.2707 -0.5572,-0.3793 -0.9287,-0.6847 -0.8563,-0.7036 -1.5709,-1.434 -2.8176,-2.8774104 -1.0578,-1.22778 -1.7456,-1.92509 -2.3123,-2.34537 -0.2597,-0.19204 -0.6391,-0.44074 -0.7776,-0.50685 -0.1055,-0.05037 -0.1385,-0.05824 -0.255,-0.06297 -0.085,-0.00314 -0.1543,0.00315 -0.1889,0.01732 z"
     fill="#ffffff"
     id="path1" />
  <path
     d="m 33.827597,16.479146 c -0.3652,0.0646 -0.6139,0.2346 -0.7587,0.521 -0.0976,0.1889 -0.1291,0.3306 -0.1291,0.5557 0,0.3337 0.0929,0.5714 0.3054,0.7886 0.1306,0.1322 0.2314,0.192 0.425,0.2518 0.1621,0.0504 0.4879,0.052 0.6532,0.0032 0.3684,-0.107 0.6171,-0.3699 0.7099,-0.7445 0.0394,-0.1606 0.0394,-0.4549 -0.0015,-0.5982 -0.1149,-0.4045 -0.3558,-0.6501 -0.732,-0.7477 -0.0976,-0.0252 -0.3935,-0.0441 -0.4722,-0.0299 z"
     fill="#ffffff"
     id="path2" />
  <path
     d="m 18.566997,19.373946 c -1.667,0.1527 -3.3811,0.7241 -4.8025,1.6008 -1.0357,0.6391 -1.9487,1.4419 -2.7326,2.4021 -1.3348197,1.637 -2.4114897,3.9666 -2.9403697,6.3624 -0.54149,2.4587 -0.44862,4.7222 0.28963,7.0282 0.7099,2.2163 1.9424397,4.3004 3.3260397,5.6226 0.8185,0.7808 1.456,1.2042 3.145,2.0904 1.7362,0.9098 2.5295,1.5158 3.3228,2.5343 0.4439,0.5698 0.8548,1.2136 1.5489,2.424 0.5368,0.9382 0.8107,1.3506 1.1318,1.7048 0.2707,0.3006 0.5415,0.4942 0.7319,0.5273 0.2141,0.0362 0.3212,-0.0693 0.3416,-0.3353 0.0189,-0.2597 -0.0362,-0.5635 -0.2754,-1.519 -0.2251,-0.9035 -0.2865,-1.2829 -0.255,-1.5756 0.0188,-0.1669 0.033,-0.1999 0.1463,-0.3337 0.0394,-0.0457 0.0599,-0.0536 0.1748,-0.074 0.1306,-0.0221 0.1306,-0.0221 0.3541,0.0315 0.6973,0.1668 1.8606,0.8736 2.8759,1.7456 0.776,0.6674 1.4025,1.3663 1.9314,2.1581 0.2927,0.4391 0.5068,0.8185 0.7933,1.4056 0.3227,0.6595 0.3557,0.7178 0.4643,0.8358 0.1008,0.1102 0.1606,0.1354 0.2897,0.1228 0.2078,-0.0189 0.3526,-0.1291 0.4265,-0.3227 0.0441,-0.118 0.1024,-0.4029 0.1323,-0.6564 0.0346,-0.2849 0.0488,-0.8814 0.0252,-1.1175 -0.0111,-0.1039 -0.0221,-0.2314 -0.0268,-0.2834 -0.0047,-0.0519 -0.0394,-0.2503 -0.0787,-0.4407 -0.2723,-1.3506 -0.8532,-2.4572 -1.8779,-3.5732 -1.1569,-1.2624 -2.9734,-2.6554 -5.2275,-4.0107 -0.8531,-0.5132 -1.6118,-0.9366 -3.2977,-1.837 -1.3993,-0.7492 -2.0494,-1.1207 -2.6523,-1.5158 -1.7189,-1.1286 -2.561,-2.2871 -3.1229,-4.3004 -0.5573,-1.9943 -0.6376,-3.3543 -0.2834,-4.8245 0.4581,-1.9031 1.7551,-4.1666 3.0868,-5.3865 0.8311,-0.7603 1.6417,-1.1711 2.6413,-1.3364 0.3856,-0.0645 1.0105,-0.0803 1.4088,-0.0378 0.8578,0.0913 1.5866,0.3385 2.0368,0.6895 0.477,0.373 0.6942,0.8217 0.7886,1.6244 0.0347,0.2802 0.0378,0.7241 0.0095,0.8422 -0.0457,0.1857 -0.1259,0.288 -0.2597,0.3305 -0.1307,0.0425 -0.3023,-0.0173 -0.7336,-0.2534 -0.7555,-0.414 -1.1396,-0.573 -1.6213,-0.6674 -0.2943,-0.0583 -0.7335,-0.0724 -1.0483,-0.0315 -1.1821,0.1495 -2.3406,0.7682 -3.1466,1.6811 -0.9507,1.0767 -1.3112,2.3517 -1.0326,3.655 0.3589,1.6685 1.6261,3.1183 3.1749,3.6346 0.4376,0.1448 0.7776,0.1983 1.2735,0.1983 0.469,0 0.8752,-0.0551 1.3537,-0.1826 1.6244,-0.4344 3.2929,-1.4308 4.4027,-2.6303 1.3552,-1.467 2.4099,-3.5464 2.7672,-5.4589 0.0693,-0.3715 0.0834,-0.4832 0.1133,-0.8925 l 0.0331,-0.4675 -0.0331,-0.4533 c -0.0315,-0.447 -0.033,-0.4596 -0.1275,-0.8752 -0.0897,-0.3919 -0.1086,-0.4533 -0.2613,-0.8421 -0.1432,-0.3699 -0.1904,-0.4675 -0.3825,-0.8138 -0.5698,-1.0247 -1.3899,-1.9283 -2.413,-2.6618 -1.2278,-0.8799 -2.6067,-1.393 -4.1414,-1.5394 -0.5604,-0.0551 -1.1822,-0.0551 -1.7677,-0.0016 z"
     fill="#ffffff"
     id="path3" />
  <path
     d="m 47.569197,19.381846 c -1.4891,0.1574 -2.8396,0.6674 -4.0359,1.5205 -1.0263,0.732 -1.8559,1.6465 -2.4257,2.6744 -0.1904,0.3431 -0.2392,0.447 -0.3809,0.8106 -0.1527,0.3951 -0.1669,0.4407 -0.2629,0.8657 -0.1007,0.4439 -0.1023,0.4534 -0.129,0.8721 -0.0252,0.4045 -0.0252,0.4455 0.0015,0.8579 0.0378,0.5839 0.1385,1.1538 0.3148,1.7787 0.5384,1.8983 1.6827,3.8139 3.0223,5.0638 1.3001,1.212 3.2662,2.1738 4.793,2.3453 0.255,0.0284 0.7745,0.0284 1.0153,-0.0015 1.8606,-0.2236 3.5401,-1.8527 3.9494,-3.8329 0.1432,-0.6895 0.1038,-1.3978 -0.1102,-2.0542 -0.3133,-0.9507 -1.0405,-1.8637 -1.9661,-2.4666 -0.6469,-0.4218 -1.393,-0.6988 -2.1328,-0.7933 -0.307,-0.0378 -0.7666,-0.0236 -1.0389,0.0315 -0.4722,0.0976 -0.8484,0.2487 -1.4844,0.5981 -0.5682,0.3117 -0.7256,0.3699 -0.8704,0.3243 -0.2172,-0.0693 -0.2991,-0.3526 -0.2582,-0.9051 0.0583,-0.8232 0.2188,-1.2892 0.573,-1.6717 0.4439,-0.4785 1.253,-0.8027 2.2761,-0.9098 0.3982,-0.0425 1.0231,-0.0267 1.4088,0.0378 1.0924,0.1794 1.9723,0.6564 2.8648,1.552 1.1192,1.1224 2.1722,2.9089 2.6964,4.5727 0.5399,1.7142 0.5053,3.2206 -0.1243,5.4385 -0.5762,2.0274 -1.412,3.1686 -3.1466,4.2988 -0.6186,0.4045 -1.286,0.7838 -2.7625,1.5725 -2.0227,1.0798 -2.986,1.6323 -4.1162,2.3563 -1.8023,1.1554 -3.2678,2.3265 -4.2579,3.4063 -0.6832,0.743 -1.1239,1.4041 -1.4623,2.1974 -0.0913,0.2141 -0.1669,0.3936 -0.1669,0.4014 0,0.0063 -0.0425,0.148 -0.0928,0.3149 -0.1149,0.3683 -0.2283,0.9239 -0.2613,1.2702 -0.0441,0.4707 -0.0268,1.0137 0.0488,1.4686 0.0582,0.3542 0.1101,0.5037 0.2172,0.6155 0.1354,0.1448 0.3888,0.1873 0.5304,0.0882 0.1102,-0.0756 0.2062,-0.2393 0.5274,-0.8862 0.4391,-0.8894 0.7272,-1.3648 1.2088,-1.9928 0.6911,-0.9004 1.656,-1.7866 2.709,-2.4902 0.6737,-0.4502 1.2624,-0.7446 1.6874,-0.8469 l 0.2236,-0.0535 0.1385,0.0236 c 0.0755,0.0142 0.1385,0.0252 0.1401,0.0268 0,0.0016 0.0346,0.0472 0.0755,0.1007 0.0724,0.096 0.0756,0.1039 0.0929,0.2597 0.0362,0.3023 -0.0268,0.6974 -0.2644,1.6418 -0.2236,0.8831 -0.2787,1.1932 -0.2645,1.4482 0.0126,0.1967 0.0645,0.3022 0.1716,0.3447 0.3195,0.1291 0.8893,-0.3605 1.4686,-1.264 0.1684,-0.2597 0.3479,-0.5635 0.8043,-1.3553 1.3758,-2.3863 2.1738,-3.2142 4.1162,-4.2767 0.1905,-0.1039 0.4455,-0.2409 0.5667,-0.3038 1.3364,-0.6989 1.9896,-1.1066 2.6366,-1.6481 1.4308,-1.1947 2.6791,-3.0647 3.518,-5.27 0.9791,-2.5736 1.157,-5.0575 0.5588,-7.7869 -0.4407,-2.0086 -1.2891,-4.0218 -2.35,-5.5754 -1.2325,-1.8071 -2.9042,-3.1734 -4.8781,-3.9887 -1.667,-0.6895 -3.4913,-0.9759 -5.1126,-0.8059 z"
     fill="#ffffff"
     id="path4" />
  <path
     d="m 33.591497,26.197546 c -0.4486,0.0582 -0.8122,0.277 -1.2026,0.7225 -0.3069,0.3494 -0.5651,0.7493 -1.1396,1.7724 -0.8264,1.4733 -1.1522,2.0164 -1.626,2.7106 -0.9901,1.4513 -1.9991,2.4602 -3.4504,3.4503 -0.6611,0.4502 -1.2797,0.8248 -2.4036,1.4529 -0.7084,0.3967 -0.9271,0.5226 -1.2278,0.7052 -0.9507,0.5792 -1.4293,1.0908 -1.5678,1.6764 -0.0441,0.1841 -0.0441,0.9145 0,1.1018 0.1118,0.4801 0.4345,0.8862 1.072,1.3411 0.3384,0.2425 0.787,0.51 1.8416,1.0987 2.9687,1.6591 4.3618,2.835 5.7328,4.8372 0.4722,0.691 0.839,1.3017 1.6764,2.7892 0.392,0.6942 0.6107,1.0531 0.8201,1.3459 0.447,0.6249 0.8421,0.9444 1.3081,1.064 0.2738,0.0693 0.8437,0.074 1.1317,0.0063 0.4707,-0.1086 0.8799,-0.4375 1.3317,-1.0703 0.2503,-0.351 0.4596,-0.6973 1.0279,-1.7126 1.552,-2.7735 2.561,-4.0659 4.1288,-5.2889 0.8279,-0.647 1.6795,-1.19 3.2268,-2.0573 0.68,-0.381 0.8673,-0.4896 1.1884,-0.6863 0.9791,-0.5982 1.4372,-1.083 1.5678,-1.6591 0.0252,-0.1149 0.0299,-0.1952 0.0299,-0.5588 -0.0016,-0.3809 -0.0047,-0.4392 -0.0346,-0.5588 -0.1228,-0.4864 -0.4533,-0.8972 -1.083,-1.3458 -0.3416,-0.2456 -0.6816,-0.4486 -1.6528,-0.9917 -2.01,-1.1239 -3.0316,-1.8102 -3.9934,-2.6838 -1.0908,-0.9917 -2.0557,-2.3013 -3.1875,-4.3287 -0.4297,-0.7713 -0.7367,-1.3081 -0.8862,-1.552 -0.5918,-0.9649 -1.0751,-1.4167 -1.6591,-1.5521 -0.118,-0.0267 -0.2046,-0.033 -0.5052,-0.0377 -0.1984,-0.0016 -0.4077,0.0015 -0.4644,0.0094 z"
     fill="#ffffff"
     id="path5" />
  <path
     d="m 20.789597,52.530246 c -0.0692,0.0158 -0.1448,0.1023 -0.2566,0.2991 -0.2109,0.3715 -0.3195,0.4801 -0.691,0.6942 -0.2125,0.1227 -0.2424,0.1448 -0.2865,0.2172 -0.0425,0.0692 -0.0456,0.1432 -0.011,0.2156 0.0299,0.0646 0.0787,0.1023 0.2818,0.2188 0.3841,0.222 0.4911,0.3337 0.7461,0.7776 0.1165,0.1999 0.2015,0.2582 0.3321,0.2235 0.0772,-0.0204 0.1464,-0.0976 0.2519,-0.2833 0.2235,-0.3951 0.3132,-0.4848 0.7115,-0.7193 0.1101,-0.0646 0.2219,-0.1417 0.2471,-0.1716 0.0897,-0.1008 0.0787,-0.2487 -0.022,-0.3322 -0.0284,-0.0236 -0.126,-0.085 -0.2157,-0.1369 -0.3243,-0.1842 -0.4722,-0.3195 -0.6265,-0.5745 -0.181,-0.2991 -0.2345,-0.3778 -0.2707,-0.3998 -0.0457,-0.0284 -0.1322,-0.0425 -0.1905,-0.0284 z"
     fill="#ffffff"
     id="path6" />
  <path
     d="m 47.057697,52.538046 c -0.0693,0.0315 -0.1024,0.0724 -0.2361,0.2991 -0.2173,0.3699 -0.3149,0.4659 -0.7084,0.6973 -0.2377,0.1401 -0.2912,0.1968 -0.2912,0.3038 0,0.1291 0.0583,0.1889 0.3479,0.3542 0.3321,0.1904 0.4612,0.3211 0.6517,0.6532 0.1369,0.2393 0.1951,0.3085 0.277,0.3306 0.1417,0.0377 0.2204,-0.0221 0.3683,-0.2834 0.2141,-0.3777 0.3447,-0.51 0.7147,-0.7177 0.203,-0.1149 0.2786,-0.1826 0.2927,-0.2645 0.0268,-0.1369 -0.0393,-0.2251 -0.2691,-0.3542 -0.403,-0.2266 -0.5116,-0.3321 -0.7288,-0.7099 -0.1102,-0.1888 -0.1716,-0.2723 -0.222,-0.299 -0.0488,-0.0252 -0.1495,-0.0315 -0.1967,-0.0095 z"
     fill="#ffffff"
     id="path7" />
  <path
     d="m 33.857497,54.349946 c -0.2975,0.0598 -0.6202,0.3384 -0.9035,0.7791 -0.4486,0.6973 -0.828,1.8354 -1.116,3.3402 -0.1921,0.998 -0.2173,1.4167 -0.1118,1.8354 0.1574,0.6217 0.8343,1.4009 1.5111,1.7393 0.5383,0.2692 0.9901,0.2692 1.5269,0 0.3132,-0.1574 0.5288,-0.3211 0.8216,-0.6249 0.1795,-0.1841 0.3447,-0.3951 0.4486,-0.5682 0.3369,-0.5667 0.3747,-0.946 0.1936,-2.0148 -0.1558,-0.9161 -0.4061,-1.9204 -0.6437,-2.5736 -0.4093,-1.1239 -0.9413,-1.8181 -1.4655,-1.9141 -0.1322,-0.0252 -0.1307,-0.0252 -0.2613,0.0016 z"
     fill="#ffffff"
     id="path8" />
</svg>
