<svg width="84" height="84" viewBox="0 0 84 84" fill="none" xmlns="http://www.w3.org/2000/svg">
<path d="M41.5246 72.5311L34.7005 58.0256C32.9608 54.3276 29.9855 51.3523 26.2875 49.6126L11.782 42.7885C11.6324 42.7181 11.5059 42.6066 11.4174 42.4671C11.3288 42.3275 11.2817 42.1656 11.2817 42.0003C11.2817 41.835 11.3288 41.6731 11.4174 41.5335C11.5059 41.3939 11.6324 41.2825 11.782 41.2121L26.2875 34.388C29.9855 32.6483 32.9608 29.673 34.7005 25.975L41.5246 11.4695C41.595 11.3199 41.7064 11.1934 41.846 11.1049C41.9856 11.0163 42.1475 10.9692 42.3128 10.9692C42.4781 10.9692 42.64 11.0163 42.7796 11.1049C42.9191 11.1934 43.0306 11.3199 43.101 11.4695L49.9251 25.975C51.6648 29.673 54.6401 32.6483 58.3381 34.388L72.8436 41.2121C72.9932 41.2825 73.1196 41.3939 73.2082 41.5335C73.2968 41.6731 73.3438 41.835 73.3438 42.0003C73.3438 42.1656 73.2968 42.3275 73.2082 42.4671C73.1196 42.6066 72.9932 42.7181 72.8436 42.7885L58.3381 49.6126C54.6401 51.3523 51.6648 54.3276 49.9251 58.0256L43.101 72.5311C43.0306 72.6807 42.9191 72.8071 42.7796 72.8957C42.64 72.9843 42.4781 73.0314 42.3128 73.0314C42.1475 73.0314 41.9856 72.9843 41.846 72.8957C41.7064 72.8071 41.595 72.6807 41.5246 72.5311Z" fill="white"/>
</svg>
