<?xml version="1.0" encoding="UTF-8"?>
<svg width="64" height="64" fill="none" version="1.1" viewBox="0 0 64 64" xmlns="http://www.w3.org/2000/svg"><g clip-path="url(#a)" fill="#fff"><path d="m48.416 29.045-1.9482-4.1414c-0.4967-1.0557-1.3462-1.9052-2.402-2.4019l-4.1412-1.9482c-0.0427-0.0201-0.0789-0.052-0.1042-0.0918-0.0253-0.0399-0.0388-0.0861-0.0388-0.1333s0.0135-0.0934 0.0388-0.1332c0.0253-0.0399 0.0615-0.0717 0.1042-0.0918l4.1412-1.9483c1.0558-0.4967 1.9053-1.3461 2.402-2.4019l1.9482-4.1413c0.0201-0.0427 0.052-0.0788 0.0919-0.1041 0.0398-0.0253 0.0859-0.0387 0.1331-0.0387s0.0934 0.0134 0.1333 0.0387c0.0398 0.0253 0.0717 0.0614 0.0918 0.1041l1.9482 4.1413c0.4967 1.0558 1.3463 1.9052 2.402 2.4019l4.1414 1.9483c0.0427 0.0201 0.0787 0.0519 0.104 0.0918 0.0253 0.0398 0.0387 0.086 0.0387 0.1332s-0.0134 0.0934-0.0387 0.1333c-0.0253 0.0398-0.0613 0.0717-0.104 0.0918l-4.1414 1.9482c-1.0557 0.4967-1.9053 1.3462-2.402 2.4019l-1.9482 4.1414c-0.0201 0.0427-0.052 0.0788-0.0918 0.1041-0.0399 0.0253-0.0861 0.0387-0.1333 0.0387s-0.0933-0.0134-0.1331-0.0387c-0.0399-0.0253-0.0718-0.0614-0.0919-0.1041z"/><path d="m38.901 15.458-0.993-2.1109c-0.2532-0.5381-0.6861-0.9711-1.2243-1.2242l-2.1108-0.9931c-0.0218-0.0102-0.0402-0.0264-0.0531-0.0468-0.0129-0.0203-0.0197-0.0438-0.0197-0.0679 0-0.024 0.0068-0.0476 0.0197-0.0679s0.0313-0.0365 0.0531-0.0468l2.1108-0.99301c0.5382-0.25317 0.9711-0.68613 1.2243-1.2243l0.993-2.1108c0.0103-0.02177 0.0265-0.04017 0.0468-0.05306 0.0203-0.0129 0.0439-0.01974 0.0679-0.01974 0.0241 0 0.0476 0.00684 0.068 0.01974 0.0203 0.01289 0.0365 0.03129 0.0467 0.05306l0.9931 2.1108c0.2531 0.53813 0.6861 0.97109 1.2242 1.2243l2.1109 0.99301c0.0217 0.0103 0.0401 0.0265 0.053 0.0468s0.0198 0.0439 0.0198 0.0679c0 0.0241-0.0069 0.0476-0.0198 0.0679-0.0129 0.0204-0.0313 0.0366-0.053 0.0468l-2.1109 0.9931c-0.5381 0.2531-0.9711 0.6861-1.2242 1.2242l-0.9931 2.1109c-0.0102 0.0217-0.0264 0.0401-0.0467 0.053-0.0204 0.0129-0.0439 0.0197-0.068 0.0197-0.024 0-0.0476-0.0068-0.0679-0.0197s-0.0365-0.0313-0.0468-0.053z"/><path d="m31.5 7.5h-11c-5.5229 0-10 4.4771-10 10v30c0 5.5228 4.4771 10 10 10h24c5.5228 0 10-4.4772 10-10v-15h-4v15c0 3.3137-2.6863 6-6 6h-24c-3.3137 0-6-2.6863-6-6v-30c0-3.3137 2.6863-6 6-6h11v-4z" clip-rule="evenodd" fill-rule="evenodd"/><path d="m35.5 19.5h-14c-1.6569 0-3 1.3431-3 3v1c0 1.6569 1.3431 3 3 3h14c1.6569 0 3-1.3431 3-3v-1c0-1.6569-1.3431-3-3-3z"/><path d="m43.5 30.5h-22c-1.6569 0-3 1.3431-3 3v1c0 1.6569 1.3431 3 3 3h22c1.6569 0 3-1.3431 3-3v-1c0-1.6569-1.3431-3-3-3z"/><path d="m43.5 41.5h-22c-1.6569 0-3 1.3431-3 3v1c0 1.6569 1.3431 3 3 3h22c1.6569 0 3-1.3431 3-3v-1c0-1.6569-1.3431-3-3-3z"/></g><defs><clipPath id="a"><rect transform="translate(10.5 6.5)" width="47" height="51" fill="#fff"/></clipPath></defs></svg>
