<svg xmlns="http://www.w3.org/2000/svg" width="84" height="84" fill="none" xmlns:v="http://www.w3.org/2000/svg"><path d="M41.525 72.531l-6.824-14.505c-1.74-3.698-4.715-6.673-8.413-8.413l-14.506-6.824a.87.87 0 0 1-.5-.788.87.87 0 0 1 .5-.788l14.506-6.824c3.698-1.74 6.673-4.715 8.413-8.413l6.824-14.506a.87.87 0 0 1 .788-.5.87.87 0 0 1 .788.5l6.824 14.506c1.74 3.698 4.715 6.673 8.413 8.413l14.505 6.824a.87.87 0 0 1 .5.788.87.87 0 0 1-.5.788l-14.505 6.824c-3.698 1.74-6.673 4.715-8.413 8.413l-6.824 14.505a.87.87 0 0 1-.788.5.87.87 0 0 1-.788-.5z" fill="#fff"/></svg>