<?xml version="1.0" encoding="UTF-8"?>
<svg xmlns="http://www.w3.org/2000/svg" xmlns:xlink="http://www.w3.org/1999/xlink" width="16px" height="16px" viewBox="0 0 16 16" version="1.1">
<g id="surface1">
<path style=" stroke:none;fill-rule:evenodd;fill:#eeeeee;fill-opacity:1;" d="M 6.375 10.230469 L 5.902344 10.6875 L 5.902344 9.773438 Z M 5.816406 6.105469 L 5.808594 6.140625 C 6.007812 6.285156 6.179688 6.460938 6.320312 6.660156 C 9.558594 6.660156 5.046875 6.660156 9.675781 6.660156 C 9.820312 6.460938 9.996094 6.28125 10.191406 6.132812 C 10.183594 6.113281 10.175781 6.089844 10.171875 6.066406 C 10.15625 6.003906 10.140625 5.9375 10.117188 5.875 C 10.097656 5.816406 10.078125 5.757812 10.058594 5.710938 L 10.046875 5.691406 C 9.992188 5.5625 9.921875 5.4375 9.839844 5.320312 C 9.761719 5.207031 9.671875 5.101562 9.574219 5.003906 C 9.472656 4.90625 9.363281 4.820312 9.246094 4.742188 C 9.125 4.664062 8.996094 4.597656 8.863281 4.542969 C 8.726562 4.484375 8.585938 4.441406 8.445312 4.414062 C 8.148438 4.359375 7.84375 4.359375 7.550781 4.414062 C 7.414062 4.441406 7.277344 4.476562 7.148438 4.527344 L 7.128906 4.539062 C 6.996094 4.59375 6.867188 4.660156 6.746094 4.738281 C 6.628906 4.8125 6.519531 4.902344 6.417969 4.996094 C 6.320312 5.09375 6.230469 5.199219 6.152344 5.3125 C 6.070312 5.433594 6 5.554688 5.945312 5.6875 C 5.914062 5.753906 5.886719 5.820312 5.867188 5.890625 C 5.84375 5.960938 5.828125 6.03125 5.8125 6.101562 Z M 5.21875 5.835938 C 5.226562 5.796875 5.238281 5.753906 5.253906 5.714844 C 5.28125 5.621094 5.316406 5.535156 5.351562 5.445312 C 5.425781 5.28125 5.515625 5.125 5.621094 4.972656 C 5.722656 4.828125 5.835938 4.6875 5.96875 4.5625 C 6.097656 4.4375 6.238281 4.328125 6.390625 4.230469 C 6.542969 4.128906 6.707031 4.042969 6.878906 3.96875 L 6.90625 3.960938 C 7.074219 3.890625 7.246094 3.839844 7.425781 3.804688 C 7.804688 3.734375 8.195312 3.734375 8.574219 3.804688 C 8.761719 3.84375 8.945312 3.894531 9.121094 3.96875 C 9.289062 4.039062 9.453125 4.128906 9.609375 4.226562 C 9.761719 4.324219 9.902344 4.4375 10.03125 4.5625 C 10.160156 4.6875 10.277344 4.824219 10.378906 4.972656 C 10.484375 5.121094 10.574219 5.277344 10.648438 5.445312 L 10.65625 5.46875 C 10.691406 5.546875 10.71875 5.621094 10.742188 5.6875 C 10.757812 5.730469 10.769531 5.777344 10.78125 5.816406 C 11.902344 5.441406 13.210938 6.105469 14.070312 7.015625 L 14.070312 6.054688 C 14.070312 6.019531 14.066406 5.984375 14.050781 5.949219 C 14.035156 5.914062 14.011719 5.878906 13.980469 5.851562 C 13.925781 5.792969 13.851562 5.765625 13.769531 5.769531 L 12.820312 5.769531 C 12.664062 5.769531 12.527344 5.660156 12.5 5.507812 C 12.480469 5.425781 12.453125 5.335938 12.425781 5.25 C 12.398438 5.160156 12.363281 5.066406 12.324219 4.964844 L 12.324219 4.949219 C 12.289062 4.859375 12.25 4.773438 12.210938 4.691406 C 12.175781 4.609375 12.125 4.519531 12.078125 4.433594 C 12.011719 4.3125 12.03125 4.160156 12.132812 4.0625 L 12.875 3.332031 C 12.902344 3.304688 12.925781 3.277344 12.941406 3.242188 C 12.953125 3.210938 12.960938 3.175781 12.960938 3.136719 C 12.960938 3.101562 12.953125 3.0625 12.941406 3.03125 C 12.921875 2.992188 12.898438 2.957031 12.867188 2.929688 L 11.957031 2.050781 C 11.929688 2.019531 11.894531 1.996094 11.855469 1.980469 C 11.820312 1.96875 11.78125 1.960938 11.742188 1.960938 C 11.703125 1.960938 11.664062 1.96875 11.628906 1.980469 C 11.589844 1.996094 11.558594 2.019531 11.53125 2.046875 L 10.851562 2.695312 C 10.742188 2.804688 10.566406 2.820312 10.441406 2.734375 C 10.363281 2.683594 10.277344 2.636719 10.191406 2.59375 C 10.101562 2.546875 10.003906 2.5 9.921875 2.460938 C 9.839844 2.425781 9.734375 2.382812 9.636719 2.347656 C 9.539062 2.308594 9.449219 2.277344 9.34375 2.246094 C 9.210938 2.203125 9.121094 2.082031 9.121094 1.945312 L 9.121094 0.945312 C 9.121094 0.90625 9.113281 0.867188 9.101562 0.828125 L 9.09375 0.816406 C 9.078125 0.785156 9.058594 0.761719 9.035156 0.738281 C 8.976562 0.683594 8.898438 0.652344 8.820312 0.65625 L 7.511719 0.65625 C 7.472656 0.65625 7.433594 0.660156 7.398438 0.675781 C 7.359375 0.691406 7.328125 0.714844 7.296875 0.742188 C 7.269531 0.769531 7.25 0.800781 7.234375 0.832031 L 7.234375 0.84375 C 7.222656 0.875 7.214844 0.910156 7.214844 0.945312 L 7.214844 1.863281 C 7.214844 2.015625 7.101562 2.144531 6.949219 2.171875 C 6.84375 2.199219 6.75 2.222656 6.664062 2.246094 C 6.578125 2.269531 6.46875 2.308594 6.378906 2.34375 L 6.359375 2.34375 C 6.277344 2.375 6.1875 2.410156 6.089844 2.453125 C 5.992188 2.496094 5.90625 2.539062 5.824219 2.582031 C 5.699219 2.648438 5.542969 2.628906 5.441406 2.53125 L 4.695312 1.8125 C 4.667969 1.785156 4.636719 1.765625 4.601562 1.75 C 4.570312 1.734375 4.53125 1.730469 4.496094 1.730469 C 4.457031 1.730469 4.417969 1.738281 4.382812 1.75 C 4.34375 1.765625 4.308594 1.792969 4.28125 1.820312 C 3.972656 2.105469 3.671875 2.410156 3.371094 2.703125 C 3.339844 2.730469 3.316406 2.765625 3.300781 2.800781 C 3.285156 2.835938 3.277344 2.871094 3.277344 2.910156 C 3.277344 2.945312 3.285156 2.984375 3.300781 3.019531 C 3.316406 3.054688 3.339844 3.085938 3.367188 3.113281 L 4.039062 3.769531 C 4.148438 3.878906 4.164062 4.046875 4.078125 4.167969 C 4.027344 4.246094 3.976562 4.328125 3.929688 4.410156 C 3.882812 4.496094 3.835938 4.589844 3.796875 4.671875 C 3.757812 4.75 3.714844 4.851562 3.675781 4.945312 C 3.636719 5.042969 3.609375 5.128906 3.574219 5.230469 C 3.527344 5.359375 3.40625 5.445312 3.265625 5.445312 L 2.230469 5.445312 C 2.1875 5.445312 2.148438 5.453125 2.109375 5.464844 L 2.09375 5.464844 C 2.066406 5.480469 2.039062 5.5 2.015625 5.523438 C 1.988281 5.546875 1.964844 5.578125 1.949219 5.613281 C 1.9375 5.648438 1.929688 5.691406 1.929688 5.730469 L 1.929688 6.988281 C 2.765625 6.125 4.097656 5.476562 5.21875 5.835938 Z M 1.484375 7.5625 C 1.351562 7.40625 1.28125 7.207031 1.28125 7 L 1.28125 5.742188 C 1.28125 5.625 1.304688 5.503906 1.347656 5.390625 C 1.441406 5.175781 1.613281 5.003906 1.832031 4.90625 L 1.867188 4.890625 C 1.980469 4.847656 2.105469 4.828125 2.230469 4.828125 L 3.035156 4.828125 L 3.074219 4.730469 C 3.113281 4.628906 3.160156 4.523438 3.207031 4.421875 C 3.253906 4.316406 3.308594 4.210938 3.359375 4.117188 L 3.402344 4.042969 L 2.910156 3.566406 C 2.820312 3.480469 2.75 3.378906 2.699219 3.269531 C 2.601562 3.042969 2.601562 2.789062 2.699219 2.5625 C 2.75 2.449219 2.820312 2.351562 2.910156 2.265625 L 3.820312 1.378906 C 3.910156 1.292969 4.015625 1.222656 4.128906 1.171875 C 4.246094 1.125 4.371094 1.101562 4.496094 1.101562 C 4.746094 1.101562 4.988281 1.199219 5.160156 1.378906 L 5.738281 1.929688 L 5.824219 1.890625 C 5.914062 1.847656 6.015625 1.808594 6.125 1.765625 L 6.140625 1.761719 C 6.25 1.71875 6.359375 1.679688 6.472656 1.648438 L 6.566406 1.621094 L 6.566406 0.945312 C 6.5625 0.832031 6.585938 0.71875 6.628906 0.609375 L 6.628906 0.589844 C 6.679688 0.480469 6.75 0.382812 6.839844 0.296875 L 6.839844 0.292969 C 6.929688 0.207031 7.039062 0.140625 7.15625 0.0976562 C 7.265625 0.0507812 7.386719 0.0273438 7.511719 0.0273438 L 8.8125 0.0273438 C 9.0625 0.0234375 9.304688 0.121094 9.480469 0.296875 C 9.5625 0.371094 9.628906 0.464844 9.675781 0.5625 L 9.691406 0.59375 C 9.734375 0.707031 9.757812 0.824219 9.757812 0.945312 L 9.757812 1.726562 L 9.859375 1.761719 C 9.964844 1.800781 10.070312 1.847656 10.179688 1.890625 C 10.289062 1.9375 10.394531 1.992188 10.492188 2.042969 L 10.570312 2.082031 L 11.066406 1.605469 C 11.152344 1.519531 11.257812 1.449219 11.371094 1.402344 C 11.605469 1.308594 11.871094 1.308594 12.101562 1.402344 C 12.21875 1.449219 12.324219 1.519531 12.410156 1.605469 L 13.328125 2.492188 C 13.414062 2.578125 13.484375 2.679688 13.535156 2.789062 C 13.582031 2.902344 13.609375 3.019531 13.609375 3.140625 C 13.613281 3.386719 13.507812 3.625 13.324219 3.789062 L 12.753906 4.351562 L 12.796875 4.4375 C 12.84375 4.535156 12.886719 4.636719 12.929688 4.734375 L 12.929688 4.75 C 12.96875 4.847656 13.007812 4.957031 13.042969 5.070312 L 13.070312 5.152344 L 13.769531 5.152344 C 14.023438 5.148438 14.265625 5.246094 14.441406 5.421875 L 14.441406 5.425781 C 14.527344 5.511719 14.59375 5.609375 14.644531 5.71875 C 14.6875 5.828125 14.714844 5.945312 14.710938 6.066406 L 14.710938 7.324219 C 14.714844 7.445312 14.691406 7.5625 14.644531 7.675781 C 14.632812 7.695312 14.625 7.71875 14.613281 7.738281 L 14.644531 7.789062 C 15.625 9.4375 16.109375 11.878906 15.96875 13.625 C 15.945312 14.148438 15.820312 14.664062 15.601562 15.140625 C 15.375 15.59375 15.050781 15.890625 14.613281 15.96875 C 14.054688 16.066406 13.359375 15.78125 12.519531 14.957031 C 12.414062 14.851562 12.300781 14.746094 12.1875 14.632812 C 11.765625 14.257812 11.378906 13.84375 11.035156 13.398438 L 4.960938 13.398438 C 4.617188 13.84375 4.230469 14.261719 3.808594 14.636719 C 3.699219 14.746094 3.585938 14.851562 3.480469 14.957031 C 2.640625 15.78125 1.945312 16.066406 1.386719 15.96875 C 0.949219 15.890625 0.621094 15.59375 0.394531 15.140625 C 0.175781 14.65625 0.0507812 14.140625 0.0234375 13.613281 C -0.121094 11.796875 0.414062 9.210938 1.484375 7.5625 Z M 5.105469 8.648438 L 5.105469 9.484375 L 5.972656 9.484375 C 6.957031 9.484375 6.957031 10.921875 5.972656 10.921875 L 5.101562 10.921875 L 5.101562 11.761719 C 5.101562 12.710938 3.617188 12.710938 3.617188 11.761719 L 3.617188 10.925781 L 2.75 10.925781 C 1.769531 10.925781 1.769531 9.492188 2.75 9.492188 L 3.621094 9.492188 L 3.621094 8.648438 C 3.621094 7.695312 5.105469 7.695312 5.105469 8.648438 Z M 11.886719 7.914062 C 12.15625 8.175781 12.15625 8.59375 11.886719 8.855469 C 11.621094 9.113281 11.183594 9.113281 10.917969 8.855469 C 10.648438 8.59375 10.648438 8.175781 10.917969 7.914062 C 11.046875 7.789062 11.222656 7.722656 11.402344 7.722656 C 11.585938 7.722656 11.757812 7.789062 11.886719 7.914062 Z M 11.886719 10.804688 C 12.15625 11.0625 12.15625 11.484375 11.886719 11.742188 C 11.621094 12.003906 11.183594 12.003906 10.917969 11.742188 C 10.648438 11.484375 10.648438 11.0625 10.917969 10.804688 C 11.046875 10.679688 11.222656 10.609375 11.402344 10.609375 C 11.585938 10.609375 11.757812 10.679688 11.886719 10.804688 Z M 13.53125 9.296875 C 13.796875 9.554688 13.796875 9.976562 13.53125 10.234375 C 13.261719 10.496094 12.828125 10.496094 12.5625 10.234375 C 12.292969 9.976562 12.292969 9.554688 12.5625 9.296875 C 12.6875 9.171875 12.863281 9.101562 13.046875 9.101562 C 13.226562 9.101562 13.402344 9.171875 13.53125 9.296875 Z M 10.242188 9.296875 C 10.511719 9.554688 10.511719 9.976562 10.242188 10.234375 C 9.976562 10.496094 9.542969 10.496094 9.273438 10.234375 C 9.003906 9.976562 9.007812 9.554688 9.273438 9.296875 C 9.402344 9.171875 9.578125 9.101562 9.757812 9.101562 C 9.941406 9.101562 10.113281 9.171875 10.242188 9.296875 Z M 4.382812 8.304688 L 4.859375 8.761719 L 3.917969 8.761719 L 4.390625 8.304688 Z M 2.394531 10.230469 L 2.867188 10.6875 L 2.867188 9.773438 Z M 4.382812 12.15625 L 4.859375 11.699219 L 3.917969 11.699219 L 4.390625 12.15625 Z M 4.382812 12.15625 "/>
</g>
</svg>
