<svg width="84" height="84" viewBox="0 0 84 84" fill="none" xmlns="http://www.w3.org/2000/svg">
<path d="M38.8487 27.2258L36.1398 29.8714C35.7748 30.2279 35.1262 30.2957 34.6694 30.0611C30.668 28.0069 25.9257 28.4079 22.6254 31.0753C22.2279 31.3966 21.6339 31.9753 21.3036 32.3626C17.9551 36.2896 18.1456 42.2061 21.7608 46.3209C22.0968 46.7034 22.6897 47.2824 23.0813 47.6106C27.2945 51.1414 33.3524 51.3276 37.3733 48.0572C37.7698 47.7346 38.363 47.1552 38.6929 46.7677C41.2891 43.7182 41.8145 39.3828 40.0451 35.5814C39.8315 35.1226 39.9211 34.4771 40.2862 34.1206L43.0972 31.3751C43.2725 31.2039 43.371 30.9717 43.371 30.7296C43.371 30.4875 43.2725 30.2553 43.0972 30.0842L40.1705 27.2258C40.0838 27.141 39.9807 27.0738 39.8673 27.0279C39.7539 26.982 39.6324 26.9584 39.5096 26.9584C39.3869 26.9584 39.2654 26.982 39.152 27.0279C39.0386 27.0738 38.9355 27.141 38.8487 27.2258Z" stroke="white" stroke-width="1.46657"/>
<path d="M42.6455 23.699C42.5503 23.606 42.4373 23.5322 42.3129 23.4819C42.1885 23.4316 42.0552 23.4057 41.9205 23.4057C41.7859 23.4057 41.6525 23.4316 41.5281 23.4819C41.4038 23.5322 41.2907 23.606 41.1955 23.699L40.2872 24.5861L39.4783 23.7962C39.2162 23.5402 38.8608 23.3965 38.4902 23.3965C38.1195 23.3965 37.7641 23.5403 37.5021 23.7963L36.6406 24.6377C36.3785 24.8936 36.2312 25.2408 36.2312 25.6027C36.2312 25.9647 36.3784 26.3118 36.6404 26.5678L43.771 33.5319C44.0331 33.7879 44.3885 33.9316 44.7591 33.9316C45.1297 33.9316 45.4852 33.7878 45.7472 33.5318L46.6087 32.6904C46.8708 32.4344 47.0181 32.0873 47.0181 31.7254C47.0181 31.3634 46.8709 31.0162 46.6089 30.7603L45.8 29.9703L46.7084 29.0831C46.8036 28.9902 46.8791 28.8798 46.9306 28.7583C46.9822 28.6368 47.0087 28.5066 47.0087 28.3751C47.0087 28.2436 46.9822 28.1134 46.9306 27.9919C46.8791 27.8704 46.8036 27.76 46.7084 27.667L42.6455 23.699ZM43.5146 25.143L46.2693 27.8333C46.3589 27.9209 46.4171 28.0344 46.4351 28.157C46.4531 28.2795 46.4299 28.4044 46.369 28.513L46.3471 28.5521C46.2641 28.7001 46.16 28.8358 46.0379 28.9551L45.984 29.0078C45.9418 29.0617 45.8891 29.107 45.8289 29.141C45.7687 29.175 45.7023 29.1972 45.6334 29.2061C45.5645 29.2151 45.4944 29.2107 45.4273 29.1932C45.3601 29.1757 45.2971 29.1455 45.2419 29.1042C45.2177 29.0806 45.1985 29.0525 45.1854 29.0216C45.1723 28.9908 45.1656 28.9577 45.1656 28.9243C45.1656 28.8909 45.1724 28.8578 45.1855 28.8269C45.1986 28.7961 45.2178 28.768 45.242 28.7444L45.3603 28.6289C45.407 28.5832 45.4441 28.529 45.4694 28.4694C45.4947 28.4097 45.5077 28.3458 45.5077 28.2812C45.5077 28.2167 45.4947 28.1528 45.4694 28.0931C45.4441 28.0335 45.407 27.9793 45.3603 27.9336L43.1806 25.8048C43.1339 25.7636 43.0959 25.7137 43.0689 25.6581C43.0419 25.6025 43.0263 25.5423 43.0231 25.4808C43.02 25.4194 43.0292 25.3579 43.0503 25.2999C43.0715 25.242 43.1041 25.1886 43.1464 25.143C43.1952 25.0953 43.2614 25.0685 43.3305 25.0685C43.3996 25.0685 43.4658 25.0953 43.5146 25.143Z" fill="white"/>
<path d="M29.8724 35.8021C30.6898 38.3967 29.4731 40.4107 30.7925 41.4801C33.1406 43.383 38.7337 43.0384 37.2005 48.4778L34.856 49.9467L31.7735 50.8683C24.5069 50.0332 20.7826 47.1432 18.8205 40.8766C18.1965 38.9681 17.8588 36.3416 19.5306 35.384C20.1542 35.0268 20.8437 35.0189 22.2854 35.1668C23.6958 35.3115 23.7698 34.6438 24.8377 33.2358C25.812 31.9514 26.9348 31.7696 27.6459 31.92C28.8013 32.1643 29.4316 33.7712 29.8724 35.8021Z" fill="white"/>
<path d="M44.7244 49.6517C44.3791 49.3161 43.9686 49.0078 43.5717 48.6531C43.4279 48.5245 43.3197 48.4031 43.3243 48.3882L43.3922 48.7164C43.4365 49.8809 40.1574 47.3784 37.6455 49.3386C37.5052 49.4481 37.2966 49.6471 37.173 49.7743C35.7354 51.2556 35.0865 52.7902 37.3153 55.0527C37.4505 55.1901 37.6785 55.4041 37.8245 55.5304C38.6067 56.2066 38.9473 56.2326 39.8544 56.3342C39.9479 56.3447 40.0371 56.3916 40.1066 56.4586C40.1752 56.5265 40.2233 56.6136 40.234 56.705C40.3381 57.5909 40.3647 57.9236 41.057 58.6875C41.1863 58.8301 41.4057 59.0529 41.5463 59.1851C43.8629 61.3618 45.434 60.7278 46.9507 59.3237C47.081 59.2031 47.2849 58.9996 47.397 58.8625C49.404 56.4092 46.8415 53.2065 48.0339 53.2497L48.3702 53.3163C48.355 53.3207 48.2306 53.2151 48.0989 53.0747C47.3725 52.2994 46.8367 51.4702 45.8858 51.2061C45.7945 51.1807 45.7059 51.1274 45.6365 51.0578C45.5652 50.99 45.5109 50.9037 45.4849 50.8146C45.3497 50.3502 45.0697 49.9873 44.7244 49.6517Z" fill="white"/>
<path d="M48.3345 34.5093C47.7813 34.8625 47.2559 35.2757 46.7691 35.751L45.4764 37.0135C41.6885 40.713 41.6885 46.6696 45.4764 50.3691L46.3415 51.214C50.1294 54.9135 56.2284 54.9135 60.0163 51.214L61.309 49.9515C61.7957 49.4762 62.2188 48.963 62.5804 48.4227C59.6788 50.1172 54.9479 48.9441 51.3743 45.4539C47.8006 41.9636 46.5995 37.3432 48.3345 34.5093Z" stroke="white" stroke-width="1.23315"/>
<path d="M61.2117 35.8464C57.2192 31.9471 51.7806 30.9369 49.0641 33.59C46.3476 36.2431 47.382 41.5548 51.3744 45.4541C55.3669 49.3533 60.8055 50.3635 63.522 47.7104C66.2385 45.0573 65.2041 39.7456 61.2117 35.8464ZM57.7734 39.2044C58.9751 40.378 59.2864 41.9767 58.4688 42.7752C57.6512 43.5737 56.0143 43.2696 54.8127 42.096C53.611 40.9225 53.2997 39.3238 54.1173 38.5253C54.9349 37.7268 56.5718 38.0308 57.7734 39.2044Z" fill="white" stroke="white" stroke-width="1.55856"/>
</svg>
