<svg width="84" height="84" viewBox="0 0 84 84" fill="none" xmlns="http://www.w3.org/2000/svg">
<path d="M10.6408 25.3361H72.6605C73.1457 25.3361 73.6202 25.4664 74.0245 25.7106C74.4289 25.9549 74.7452 26.3023 74.934 26.7095C75.1227 27.1166 75.1756 27.5654 75.0859 27.9998C74.9961 28.4341 74.7679 28.8347 74.4295 29.1515L43.7934 57.8403C43.5148 58.1011 43.1817 58.3084 42.8136 58.45C42.4456 58.5916 42.0502 58.6646 41.6507 58.6646C41.2512 58.6646 40.8557 58.5916 40.4877 58.45C40.1197 58.3084 39.7866 58.1011 39.508 57.8403L8.87183 29.1515C8.53352 28.8347 8.30523 28.4341 8.21551 27.9998C8.12579 27.5654 8.17862 27.1166 8.36739 26.7095C8.55616 26.3023 8.8725 25.9549 9.27686 25.7106C9.68121 25.4664 10.1556 25.3361 10.6408 25.3361Z" fill="white"/>
</svg>
