<svg width="140" height="180" viewBox="0 0 140 180" fill="none" xmlns="http://www.w3.org/2000/svg">
<path opacity="0.4" d="M-63.242 91.2688L-29.1811 216.727C-28.4576 219.392 -24.1463 220.541 -19.5516 219.294L230.033 151.534C234.628 150.287 237.766 147.115 237.043 144.45L202.982 18.9914C202.259 16.3264 197.947 15.1773 193.353 16.4247L-56.2325 84.1848C-60.8273 85.4322 -63.9655 88.6039 -63.242 91.2688Z" fill="#1A1A1A" fill-opacity="0.2"/>
<path opacity="0.2" d="M180.093 -49.4354L62.5219 -8.75788C60.0245 -7.89382 58.9628 -4.41045 60.1506 -0.977549L124.668 185.497C125.855 188.93 128.843 191.012 131.34 190.148L248.911 149.471C251.408 148.606 252.47 145.123 251.282 141.69L186.765 -44.7841C185.577 -48.217 182.59 -50.2994 180.093 -49.4354Z" fill="#1A1A1A" fill-opacity="0.2"/>
</svg>
