<svg width="140" height="180" viewBox="0 0 140 180" fill="none" xmlns="http://www.w3.org/2000/svg">
<path opacity="0.4" d="M-43.1005 -29.2032L-150.856 43.5213C-153.144 45.0661 -152.841 49.5175 -150.177 53.4639L-5.50071 267.83C-2.83727 271.776 1.17738 273.723 3.46628 272.178L111.221 199.454C113.51 197.909 113.207 193.458 110.543 189.511L-34.1335 -24.8548C-36.797 -28.8011 -40.8116 -30.748 -43.1005 -29.2032Z" fill="#1A1A1A" fill-opacity="0.2"/>
<path opacity="0.2" d="M236.438 118.105L159.997 19.9509C158.373 17.866 154.733 17.9852 151.867 20.2172L-3.81082 141.458C-6.67677 143.69 -7.68379 147.19 -6.06004 149.275L70.3816 247.429C72.0053 249.514 75.645 249.395 78.5109 247.163L234.189 125.921C237.055 123.689 238.062 120.19 236.438 118.105Z" fill="#1A1A1A" fill-opacity="0.2"/>
</svg>
