<svg width="140" height="102" viewBox="0 0 140 102" fill="none" xmlns="http://www.w3.org/2000/svg">
<path d="M0 21V39V97C0 99.761 2.23857 102 5 102H135C137.761 102 140 99.761 140 97V57C140 47.059 131.941 39 122 39H18C8.0589 39 0 30.9411 0 21Z" fill="#34333F"/>
<path d="M-0.136526 20.7229L-2.08627 16.5785C-2.58333 15.5219 -3.43341 14.6718 -4.48998 14.1748L-8.63441 12.225C-8.67715 12.2049 -8.71328 12.173 -8.73859 12.1332C-8.7639 12.0933 -8.77734 12.047 -8.77734 11.9998C-8.77734 11.9526 -8.7639 11.9063 -8.73859 11.8664C-8.71328 11.8266 -8.67715 11.7947 -8.63441 11.7746L-4.48998 9.82486C-3.43341 9.3278 -2.58333 8.47772 -2.08627 7.42115L-0.136528 3.27672C-0.116422 3.23398 -0.084569 3.19785 -0.0446911 3.17254C-0.00481415 3.14723 0.0414419 3.13379 0.0886726 3.13379C0.135903 3.13379 0.182159 3.14723 0.222037 3.17254C0.261914 3.19785 0.293766 3.23398 0.313871 3.27672L2.26362 7.42115C2.76068 8.47772 3.61075 9.3278 4.66732 9.82486L8.81176 11.7746C8.8545 11.7947 8.89063 11.8266 8.91594 11.8664C8.94125 11.9063 8.95469 11.9526 8.95469 11.9998C8.95469 12.047 8.94125 12.0933 8.91594 12.1332C8.89063 12.173 8.8545 12.2049 8.81176 12.225L4.66732 14.1748C3.61075 14.6718 2.76068 15.5219 2.26362 16.5785L0.313873 20.7229C0.293767 20.7656 0.261914 20.8018 0.222037 20.8271C0.182159 20.8524 0.135903 20.8658 0.0886726 20.8658C0.0414419 20.8658 -0.00481415 20.8524 -0.0446911 20.8271C-0.084569 20.8018 -0.116421 20.7656 -0.136526 20.7229Z" fill="#F5F5F5"/>
<path d="M139.863 79.7229L137.914 75.5785C137.417 74.5219 136.567 73.6718 135.51 73.1748L131.366 71.225C131.323 71.2049 131.287 71.173 131.261 71.1332C131.236 71.0933 131.223 71.047 131.223 70.9998C131.223 70.9526 131.236 70.9063 131.261 70.8664C131.287 70.8266 131.323 70.7947 131.366 70.7746L135.51 68.8249C136.567 68.3278 137.417 67.4777 137.914 66.4212L139.863 62.2767C139.884 62.234 139.915 62.1978 139.955 62.1725C139.995 62.1472 140.041 62.1338 140.089 62.1338C140.136 62.1338 140.182 62.1472 140.222 62.1725C140.262 62.1978 140.294 62.234 140.314 62.2767L142.264 66.4212C142.761 67.4777 143.611 68.3278 144.667 68.8249L148.812 70.7746C148.854 70.7947 148.891 70.8266 148.916 70.8664C148.941 70.9063 148.955 70.9526 148.955 70.9998C148.955 71.047 148.941 71.0933 148.916 71.1332C148.891 71.173 148.854 71.2049 148.812 71.225L144.667 73.1748C143.611 73.6718 142.761 74.5219 142.264 75.5785L140.314 79.7229C140.294 79.7656 140.262 79.8018 140.222 79.8271C140.182 79.8524 140.136 79.8658 140.089 79.8658C140.041 79.8658 139.995 79.8524 139.955 79.8271C139.915 79.8018 139.884 79.7656 139.863 79.7229Z" fill="#F5F5F5"/>
</svg>
