<?xml version="1.0" encoding="UTF-8" standalone="no"?>
<svg
   width="1024"
   height="1024"
   viewBox="0 0 1024 1024"
   fill="none"
   version="1.1"
   id="svg18"
   sodipodi:docname="logo_gradient_bg_rounded-optimized.svg"
   inkscape:version="1.3.2 (091e20e, 2023-11-25, custom)"
   xmlns:inkscape="http://www.inkscape.org/namespaces/inkscape"
   xmlns:sodipodi="http://sodipodi.sourceforge.net/DTD/sodipodi-0.dtd"
   xmlns="http://www.w3.org/2000/svg"
   xmlns:svg="http://www.w3.org/2000/svg">
  <sodipodi:namedview
     id="namedview18"
     pagecolor="#505050"
     bordercolor="#eeeeee"
     borderopacity="1"
     inkscape:showpageshadow="0"
     inkscape:pageopacity="0"
     inkscape:pagecheckerboard="0"
     inkscape:deskcolor="#505050"
     inkscape:zoom="0.17749023"
     inkscape:cx="-143.66988"
     inkscape:cy="1349.37"
     inkscape:window-width="1858"
     inkscape:window-height="1057"
     inkscape:window-x="1974"
     inkscape:window-y="-8"
     inkscape:window-maximized="1"
     inkscape:current-layer="logo_gradient_shadow" />
  <g
     id="logo_gradient_shadow">
    <path
       style="display:inline;fill:#ffffff;fill-opacity:1;stroke:none;stroke-width:18"
       id="rect18"
       width="1026.5"
       height="1026.5"
       x="0"
       y="0"
       rx="513.25"
       ry="513.25"
       inkscape:path-effect="#path-effect18"
       sodipodi:type="rect"
       d="m 513.25,0 c 284.3405,0 513.25,228.9095 513.25,513.25 0,284.3405 -228.9095,513.25 -513.25,513.25 C 228.9095,1026.5 0,797.5905 0,513.25 0,228.9095 228.9095,0 513.25,0 Z"
       transform="scale(0.99756454)" />
    <g
       id="mask"
       filter="url(#filter0_d_1426_2646)">
      <mask
         id="mask0_1426_2646"
         style="mask-type:alpha"
         maskUnits="userSpaceOnUse"
         x="111"
         y="81"
         width="802"
         height="862">
        <g
           id="logo">
          <svg
             width="1024"
             height="1024"
             viewBox="0 0 1024 1024"
             fill="none"
             version="1.1"
             id="svg8">
            <path
               d="M509.393 87.0876C505.742 88.4861 496.427 94.7676 491.022 99.461C483.2 106.24 474.453 115.485 460.681 131.437C442.548 152.439 431.526 163.674 418.607 174.246C413.274 178.608 410.809 180.433 405.001 184.273C398.554 188.539 397.203 189.298 390.4 192.711L382.91 196.457L374.566 199.088L366.246 201.719L357.76 202.88L349.274 204.042L340.48 204.208C331.71 204.35 331.662 204.35 322.465 203.497C306.607 202.051 294.827 199.965 265.837 193.517C248.344 189.606 242.252 188.539 235.852 188.16C231.609 187.923 230.969 187.947 228.148 188.397C225.185 188.848 224.972 188.919 222.957 190.128L220.847 191.408L220.065 193.209L219.307 195.011L219.828 197.381C220.255 199.443 220.539 200.083 222.033 202.572C228.03 212.551 245.191 226.228 268.35 239.455C289.612 251.615 312.273 261.144 333.843 266.999C342.068 269.227 343.633 269.582 351.526 270.91C359.964 272.332 360.391 272.379 368.237 272.782C376.225 273.185 376.391 273.185 384.237 272.664C391.324 272.214 392.96 272.024 399.289 270.957C418.631 267.639 438.234 260.48 460.207 248.699C478.317 239.005 489.339 232.273 501.452 223.55C504.201 221.559 507.307 219.52 508.373 218.975C510.104 218.122 510.507 218.003 512 218.003C513.493 218.003 513.896 218.122 515.627 218.975C516.717 219.52 520.154 221.796 523.283 224.024C532.433 230.637 541.037 236.065 553.007 242.774C576.521 256 592.711 263.04 610.489 267.828C620.99 270.649 629.049 271.977 639.739 272.664C647.585 273.185 647.704 273.185 655.858 272.759C663.87 272.356 664.249 272.308 672.474 270.934C679.893 269.654 681.932 269.203 689.778 267.117C701.369 263.988 712.747 260.006 724.978 254.744C759.964 239.739 793.055 217.363 801.944 202.738C803.437 200.273 803.698 199.657 804.148 197.547L804.67 195.153L803.911 193.304L803.129 191.431L800.972 190.151C798.91 188.942 798.673 188.871 795.662 188.397C792.794 187.947 792.154 187.923 787.911 188.16C780.824 188.563 775.277 189.582 752.474 194.726C730.809 199.609 716.018 202.145 701.203 203.497L691.911 204.35L683.07 204.184L674.252 204.042L665.932 202.904L657.588 201.742L649.458 199.159L641.304 196.551L633.837 192.901C626.821 189.44 625.92 188.942 619.022 184.368C612.836 180.291 610.631 178.655 605.037 174.057C592.142 163.461 581.381 152.462 562.607 130.726C546.678 112.237 536.32 101.737 527.787 95.4076C523.876 92.5158 518.163 88.7706 516.077 87.775C514.489 87.0165 513.991 86.898 512.237 86.8269C510.957 86.7795 509.914 86.8743 509.393 87.0876Z"
               fill="white"
               id="path1" />
            <path
               d="M509.392 248.32C503.893 249.292 500.148 251.852 497.967 256.166C496.498 259.011 496.023 261.144 496.023 264.533C496.023 269.559 497.422 273.138 500.622 276.409C502.589 278.4 504.106 279.301 507.022 280.202C509.463 280.96 514.37 280.984 516.859 280.249C522.406 278.637 526.151 274.679 527.549 269.037C528.142 266.619 528.142 262.187 527.526 260.03C525.795 253.938 522.169 250.24 516.503 248.771C515.034 248.391 510.578 248.107 509.392 248.32Z"
               fill="white"
               id="path2" />
            <path
               d="M279.585 291.911C254.483 294.21 228.669 302.815 207.265 316.018C191.668 325.641 177.92 337.73 166.115 352.19C146.015 376.841 129.801 411.923 121.837 448C113.683 485.025 115.081 519.111 126.198 553.837C136.889 587.212 155.449 618.596 176.284 638.507C188.61 650.264 198.21 656.64 223.644 669.985C249.789 683.686 261.736 692.812 273.683 708.148C280.367 716.729 286.554 726.424 297.007 744.652C305.09 758.779 309.215 764.99 314.05 770.323C318.127 774.85 322.204 777.766 325.072 778.264C328.296 778.809 329.908 777.221 330.216 773.215C330.501 769.304 329.671 764.729 326.068 750.341C322.678 736.735 321.754 731.022 322.228 726.613C322.512 724.101 322.726 723.603 324.432 721.588C325.025 720.901 325.333 720.782 327.063 720.474C329.031 720.142 329.031 720.142 332.397 720.948C342.898 723.461 360.415 734.104 375.703 747.236C387.389 757.286 396.823 767.81 404.788 779.733C409.197 786.347 412.421 792.059 416.735 800.901C421.594 810.833 422.092 811.71 423.727 813.487C425.244 815.147 426.145 815.526 428.089 815.336C431.218 815.052 433.398 813.393 434.512 810.477C435.176 808.699 436.053 804.409 436.503 800.593C437.025 796.302 437.238 787.319 436.883 783.763C436.717 782.199 436.551 780.279 436.48 779.496C436.409 778.714 435.887 775.727 435.295 772.859C431.194 752.521 422.447 735.858 407.016 719.052C389.594 700.041 362.24 679.064 328.296 658.655C315.449 650.927 304.023 644.551 278.637 630.993C257.564 619.71 247.775 614.116 238.696 608.166C212.812 591.17 200.13 573.724 191.668 543.407C183.277 513.375 182.068 492.895 187.401 470.756C194.299 442.098 213.831 408.012 233.884 389.641C246.4 378.193 258.607 372.006 273.659 369.517C279.466 368.545 288.877 368.308 294.874 368.948C307.792 370.323 318.767 374.044 325.546 379.33C332.729 384.948 336 391.704 337.422 403.793C337.943 408.012 337.991 414.696 337.564 416.474C336.877 419.271 335.668 420.812 333.653 421.452C331.686 422.092 329.102 421.191 322.607 417.636C311.229 411.401 305.446 409.007 298.192 407.585C293.76 406.708 287.146 406.495 282.406 407.111C264.604 409.363 247.158 418.679 235.022 432.427C220.705 448.64 215.277 467.84 219.472 487.467C224.877 512.593 243.958 534.424 267.283 542.199C273.872 544.379 278.992 545.185 286.459 545.185C293.523 545.185 299.638 544.356 306.844 542.436C331.306 535.893 356.432 520.889 373.143 502.827C393.552 480.735 409.434 449.422 414.815 420.622C415.858 415.028 416.071 413.345 416.521 407.182L417.019 400.142L416.521 393.316C416.047 386.584 416.023 386.394 414.601 380.136C413.25 374.234 412.966 373.31 410.666 367.455C408.509 361.884 407.798 360.415 404.906 355.2C396.326 339.769 383.976 326.163 368.569 315.117C350.08 301.867 329.315 294.139 306.204 291.935C297.766 291.105 288.403 291.105 279.585 291.911Z"
               fill="white"
               id="path3" />
            <path
               d="M716.326 292.03C693.902 294.4 673.564 302.08 655.549 314.928C640.095 325.95 627.603 339.722 619.022 355.2C616.154 360.368 615.419 361.932 613.286 367.408C610.986 373.357 610.773 374.045 609.327 380.445C607.81 387.129 607.786 387.271 607.383 393.576C607.004 399.668 607.004 400.285 607.407 406.495C607.976 415.289 609.493 423.87 612.148 433.28C620.255 461.867 637.487 490.714 657.659 509.535C677.238 527.787 706.844 542.27 729.837 544.854C733.677 545.28 741.499 545.28 745.126 544.83C773.143 541.464 798.435 516.931 804.598 487.111C806.755 476.729 806.163 466.062 802.939 456.178C798.222 441.861 787.271 428.113 773.333 419.034C763.591 412.682 752.355 408.51 741.215 407.088C736.592 406.519 729.671 406.732 725.57 407.562C718.459 409.031 712.794 411.307 703.218 416.569C694.661 421.262 692.29 422.139 690.109 421.452C686.838 420.409 685.606 416.142 686.222 407.822C687.099 395.425 689.517 388.409 694.85 382.649C701.535 375.443 713.718 370.56 729.126 368.948C735.123 368.308 744.533 368.545 750.341 369.517C766.791 372.219 780.041 379.402 793.481 392.889C810.335 409.79 826.192 436.693 834.086 461.748C842.216 487.562 841.695 510.246 832.213 543.645C823.538 574.175 810.951 591.36 784.829 608.379C775.514 614.471 765.463 620.184 743.229 632.059C712.77 648.32 698.263 656.64 681.244 667.544C654.103 684.942 632.035 702.578 617.126 718.839C606.838 730.027 600.201 739.982 595.105 751.929C593.73 755.153 592.592 757.855 592.592 757.974C592.592 758.068 591.952 760.202 591.194 762.714C589.463 768.261 587.757 776.628 587.259 781.843C586.595 788.931 586.856 797.108 587.994 803.959C588.871 809.292 589.653 811.544 591.265 813.227C593.303 815.408 597.12 816.048 599.253 814.554C600.912 813.416 602.358 810.951 607.194 801.209C613.807 787.816 618.145 780.658 625.398 771.2C635.804 757.642 650.335 744.296 666.192 733.701C676.338 726.922 685.203 722.489 691.603 720.948L694.969 720.142L697.055 720.498C698.192 720.711 699.141 720.877 699.164 720.901C699.164 720.925 699.686 721.612 700.302 722.418C701.392 723.864 701.44 723.982 701.701 726.329C702.246 730.88 701.298 736.83 697.718 751.052C694.352 764.35 693.523 769.019 693.736 772.859C693.926 775.822 694.708 777.411 696.32 778.051C701.132 779.994 709.712 772.622 718.435 759.016C720.972 755.105 723.674 750.531 730.548 738.608C751.265 702.673 763.283 690.205 792.533 674.205C795.401 672.64 799.241 670.578 801.066 669.63C821.191 659.105 831.028 652.966 840.77 644.812C862.317 626.821 881.114 598.661 893.748 565.452C908.492 526.696 911.17 489.292 902.163 448.19C895.526 417.944 882.749 387.627 866.773 364.231C848.213 337.019 823.04 316.445 793.315 304.166C768.213 293.784 740.741 289.47 716.326 292.03Z"
               fill="white"
               id="path4" />
            <path
               d="M505.837 394.667C499.081 395.544 493.606 398.839 487.727 405.547C483.105 410.809 479.217 416.83 470.566 432.237C458.121 454.424 453.215 462.602 446.08 473.055C431.17 494.91 415.976 510.104 394.121 525.014C384.166 531.793 374.85 537.434 357.926 546.892C347.259 552.865 343.964 554.762 339.437 557.511C325.12 566.234 317.914 573.938 315.828 582.756C315.164 585.529 315.164 596.528 315.828 599.348C317.511 606.578 322.37 612.694 331.97 619.544C337.066 623.194 343.822 627.224 359.703 636.089C404.409 661.073 425.386 678.779 446.032 708.931C453.143 719.337 458.666 728.534 471.277 750.934C477.179 761.387 480.474 766.791 483.626 771.2C490.358 780.611 496.308 785.422 503.324 787.224C507.449 788.267 516.029 788.338 520.367 787.319C527.455 785.683 533.617 780.729 540.42 771.2C544.189 765.914 547.342 760.699 555.899 745.411C579.271 703.645 594.465 684.184 618.074 665.766C630.542 656.024 643.366 647.846 666.666 634.785C676.906 629.049 679.727 627.414 684.563 624.451C699.306 615.443 706.204 608.142 708.172 599.467C708.551 597.737 708.622 596.528 708.622 591.052C708.598 585.316 708.551 584.439 708.1 582.637C706.252 575.313 701.274 569.126 691.792 562.371C686.649 558.673 681.529 555.615 666.903 547.437C636.634 530.513 621.25 520.178 606.767 507.022C590.34 492.089 575.81 472.368 558.767 441.837C552.296 430.222 547.674 422.139 545.422 418.465C536.509 403.935 529.232 397.132 520.438 395.094C518.66 394.691 517.357 394.596 512.829 394.525C509.843 394.501 506.69 394.548 505.837 394.667Z"
               fill="white"
               id="path5" />
            <path
               d="M313.055 791.206C312.012 791.443 310.874 792.747 309.191 795.71C306.015 801.304 304.379 802.939 298.785 806.163C295.585 808.012 295.135 808.344 294.471 809.434C293.831 810.477 293.784 811.591 294.305 812.682C294.755 813.653 295.49 814.222 298.548 815.976C304.332 819.319 305.944 821.002 309.784 827.686C311.538 830.696 312.818 831.573 314.785 831.052C315.946 830.744 316.989 829.582 318.578 826.785C321.944 820.836 323.295 819.485 329.292 815.953C330.951 814.981 332.634 813.819 333.013 813.369C334.364 811.852 334.198 809.624 332.681 808.368C332.255 808.012 330.785 807.088 329.434 806.305C324.551 803.532 322.323 801.493 320 797.653C317.274 793.15 316.468 791.965 315.923 791.633C315.235 791.206 313.932 790.993 313.055 791.206Z"
               fill="white"
               id="path6" />
            <path
               d="M708.622 791.324C707.579 791.798 707.081 792.415 705.066 795.828C701.795 801.398 700.326 802.844 694.4 806.329C690.821 808.438 690.015 809.292 690.015 810.904C690.015 812.847 690.892 813.748 695.253 816.237C700.255 819.105 702.198 821.072 705.066 826.074C707.129 829.677 708.006 830.72 709.238 831.052C711.372 831.621 712.557 830.72 714.785 826.785C718.009 821.096 719.976 819.105 725.546 815.976C728.604 814.246 729.742 813.227 729.955 811.994C730.358 809.932 729.363 808.604 725.902 806.661C719.834 803.247 718.198 801.659 714.927 795.97C713.268 793.126 712.344 791.87 711.585 791.467C710.85 791.087 709.333 790.992 708.622 791.324Z"
               fill="white"
               id="path7" />
            <path
               d="M509.843 818.608C505.363 819.508 500.503 823.704 496.237 830.341C489.481 840.842 483.768 857.979 479.431 880.64C476.539 895.668 476.16 901.973 477.748 908.279C480.118 917.642 490.311 929.375 500.503 934.471C508.61 938.525 515.413 938.525 523.496 934.471C528.213 932.101 531.46 929.636 535.869 925.061C538.571 922.288 541.06 919.111 542.625 916.504C547.697 907.97 548.266 902.258 545.54 886.163C543.194 872.368 539.425 857.245 535.845 847.408C529.683 830.483 521.671 820.03 513.777 818.584C511.786 818.205 511.81 818.205 509.843 818.608Z"
               fill="white"
               id="path8" />
          </svg>
        </g>
      </mask>
      <g
         mask="url(#mask0_1426_2646)"
         id="g9">
        <rect
           id="gradient"
           x="-2.5"
           y="-2.5"
           width="1029"
           height="1029"
           fill="url(#paint0_radial_1426_2646)"
           stroke="black"
           stroke-width="5" />
        <g
           id="mult"
           style="mix-blend-mode:multiply"
           opacity="0.39">
          <rect
             x="-2.5"
             y="-2.5"
             width="1029"
             height="1029"
             fill="url(#paint1_radial_1426_2646)"
             id="rect8" />
          <rect
             x="-2.5"
             y="-2.5"
             width="1029"
             height="1029"
             stroke="black"
             stroke-width="5"
             id="rect9" />
        </g>
      </g>
    </g>
  </g>
  <defs
     id="defs18">
    <inkscape:path-effect
       effect="fillet_chamfer"
       id="path-effect18"
       is_visible="false"
       lpeversion="1"
       nodesatellites_param="F,0,0,1,0,256,0,1 @ F,0,0,1,0,256,0,1 @ F,0,0,1,0,256,0,1 @ F,0,0,1,0,256,0,1"
       radius="256"
       unit="px"
       method="auto"
       mode="F"
       chamfer_steps="1"
       flexible="false"
       use_knot_distance="true"
       apply_no_radius="true"
       apply_with_radius="true"
       only_selected="false"
       hide_knots="false" />
    <filter
       id="filter0_d_1426_2646"
       x="107.629"
       y="81.8149"
       width="808.719"
       height="868.696"
       filterUnits="userSpaceOnUse"
       color-interpolation-filters="sRGB">
      <feFlood
         flood-opacity="0"
         result="BackgroundImageFix"
         id="feFlood9" />
      <feColorMatrix
         in="SourceAlpha"
         type="matrix"
         values="0 0 0 0 0 0 0 0 0 0 0 0 0 0 0 0 0 0 127 0"
         result="hardAlpha"
         id="feColorMatrix9" />
      <feOffset
         dy="4"
         id="feOffset9" />
      <feGaussianBlur
         stdDeviation="2"
         id="feGaussianBlur9" />
      <feComposite
         in2="hardAlpha"
         operator="out"
         id="feComposite9" />
      <feColorMatrix
         type="matrix"
         values="0 0 0 0 0 0 0 0 0 0 0 0 0 0 0 0 0 0 0.15 0"
         id="feColorMatrix10" />
      <feBlend
         mode="normal"
         in2="BackgroundImageFix"
         result="effect1_dropShadow_1426_2646"
         id="feBlend10" />
      <feBlend
         mode="normal"
         in="SourceGraphic"
         in2="effect1_dropShadow_1426_2646"
         result="shape"
         id="feBlend11" />
    </filter>
    <radialGradient
       id="paint0_radial_1426_2646"
       cx="0"
       cy="0"
       r="1"
       gradientUnits="userSpaceOnUse"
       gradientTransform="translate(53.5 134.5) rotate(50.3879) scale(1061.82)">
      <stop
         offset="0.22"
         stop-color="#B1DEF1"
         id="stop11" />
      <stop
         offset="0.5"
         stop-color="#D1A9F9"
         id="stop12" />
      <stop
         offset="0.68"
         stop-color="#EFC9F2"
         id="stop13" />
      <stop
         offset="0.95"
         stop-color="#B1DEF1"
         id="stop14" />
    </radialGradient>
    <radialGradient
       id="paint1_radial_1426_2646"
       cx="0"
       cy="0"
       r="1"
       gradientUnits="userSpaceOnUse"
       gradientTransform="translate(-204 -54.4999) rotate(46.2519) scale(1828.66)">
      <stop
         offset="0.22"
         stop-color="#A8DAEF"
         id="stop15" />
      <stop
         offset="0.5"
         stop-color="#B879F6"
         id="stop16" />
      <stop
         offset="0.68"
         stop-color="#E3A1E9"
         id="stop17" />
      <stop
         offset="0.95"
         stop-color="#A8DAEF"
         id="stop18" />
    </radialGradient>
  </defs>
</svg>
