<?xml version="1.0" encoding="UTF-8"?>
<svg width="1024" height="1024" fill="none" version="1.1" viewBox="0 0 1024 1024" xmlns="http://www.w3.org/2000/svg"><g fill="#fff"><path d="m509.39 87.088c-3.651 1.3985-12.966 7.68-18.371 12.373-7.822 6.779-16.569 16.024-30.341 31.976-18.133 21.002-29.155 32.237-42.074 42.809-5.333 4.362-7.798 6.187-13.606 10.027-6.447 4.266-7.798 5.025-14.601 8.438l-7.49 3.746-8.344 2.631-8.32 2.631-8.486 1.161-8.486 1.162-8.794 0.166c-8.77 0.142-8.818 0.142-18.015-0.711-15.858-1.446-27.638-3.532-56.628-9.98-17.493-3.911-23.585-4.978-29.985-5.357-4.243-0.237-4.883-0.213-7.704 0.237-2.963 0.451-3.176 0.522-5.191 1.731l-2.11 1.28-0.782 1.801-0.758 1.802 0.521 2.37c0.427 2.062 0.711 2.702 2.205 5.191 5.997 9.979 23.158 23.656 46.317 36.883 21.262 12.16 43.923 21.689 65.493 27.544 8.225 2.228 9.79 2.583 17.683 3.911 8.438 1.422 8.865 1.469 16.711 1.872 7.988 0.403 8.154 0.403 16-0.118 7.087-0.45 8.723-0.64 15.052-1.707 19.342-3.318 38.945-10.477 60.918-22.258 18.11-9.694 29.132-16.426 41.245-25.149 2.749-1.991 5.855-4.03 6.921-4.575 1.731-0.853 2.134-0.972 3.627-0.972s1.896 0.119 3.627 0.972c1.09 0.545 4.527 2.821 7.656 5.049 9.15 6.613 17.754 12.041 29.724 18.75 23.514 13.226 39.704 20.266 57.482 25.054 10.501 2.821 18.56 4.149 29.25 4.836 7.846 0.521 7.965 0.521 16.119 0.095 8.012-0.403 8.391-0.451 16.616-1.825 7.419-1.28 9.458-1.731 17.304-3.817 11.591-3.129 22.969-7.111 35.2-12.373 34.986-15.005 68.077-37.381 76.966-52.006 1.493-2.465 1.754-3.081 2.204-5.191l0.522-2.394-0.759-1.849-0.782-1.873-2.157-1.28c-2.062-1.209-2.299-1.28-5.31-1.754-2.868-0.45-3.508-0.474-7.751-0.237-7.087 0.403-12.634 1.422-35.437 6.566-21.665 4.883-36.456 7.419-51.271 8.771l-9.292 0.853-8.841-0.166-8.818-0.142-8.32-1.138-8.344-1.162-8.13-2.583-8.154-2.608-7.467-3.65c-7.016-3.461-7.917-3.959-14.815-8.533-6.186-4.077-8.391-5.713-13.985-10.311-12.895-10.596-23.656-21.595-42.43-43.331-15.929-18.489-26.287-28.989-34.82-35.318-3.911-2.8918-9.624-6.637-11.71-7.6326-1.588-0.7585-2.086-0.877-3.84-0.9481-1.28-0.0474-2.323 0.0474-2.844 0.2607z"/><path d="m509.39 248.32c-5.499 0.972-9.244 3.532-11.425 7.846-1.469 2.845-1.944 4.978-1.944 8.367 0 5.026 1.399 8.605 4.599 11.876 1.967 1.991 3.484 2.892 6.4 3.793 2.441 0.758 7.348 0.782 9.837 0.047 5.547-1.612 9.292-5.57 10.69-11.212 0.593-2.418 0.593-6.85-0.023-9.007-1.731-6.092-5.357-9.79-11.023-11.259-1.469-0.38-5.925-0.664-7.111-0.451z"/><path d="m279.58 291.91c-25.102 2.299-50.916 10.904-72.32 24.107-15.597 9.623-29.345 21.712-41.15 36.172-20.1 24.651-36.314 59.733-44.278 95.81-8.154 37.025-6.756 71.111 4.361 105.84 10.691 33.375 29.251 64.759 50.086 84.67 12.326 11.757 21.926 18.133 47.36 31.478 26.145 13.701 38.092 22.827 50.039 38.163 6.684 8.581 12.871 18.276 23.324 36.504 8.083 14.127 12.208 20.338 17.043 25.671 4.077 4.527 8.154 7.443 11.022 7.941 3.224 0.545 4.836-1.043 5.144-5.049 0.285-3.911-0.545-8.486-4.148-22.874-3.39-13.606-4.314-19.319-3.84-23.728 0.284-2.512 0.498-3.01 2.204-5.025 0.593-0.687 0.901-0.806 2.631-1.114 1.968-0.332 1.968-0.332 5.334 0.474 10.501 2.513 28.018 13.156 43.306 26.288 11.686 10.05 21.12 20.574 29.085 32.497 4.409 6.614 7.633 12.326 11.947 21.168 4.859 9.932 5.357 10.809 6.992 12.586 1.517 1.66 2.418 2.039 4.362 1.849 3.129-0.284 5.309-1.943 6.423-4.859 0.664-1.778 1.541-6.068 1.991-9.884 0.522-4.291 0.735-13.274 0.38-16.83-0.166-1.564-0.332-3.484-0.403-4.267-0.071-0.782-0.593-3.769-1.185-6.637-4.101-20.338-12.848-37.001-28.279-53.807-17.422-19.011-44.776-39.988-78.72-60.397-12.847-7.728-24.273-14.104-49.659-27.662-21.073-11.283-30.862-16.877-39.941-22.827-25.884-16.996-38.566-34.442-47.028-64.759-8.391-30.032-9.6-50.512-4.267-72.651 6.898-28.658 26.43-62.744 46.483-81.115 12.516-11.448 24.723-17.635 39.775-20.124 5.807-0.972 15.218-1.209 21.215-0.569 12.918 1.375 23.893 5.096 30.672 10.382 7.183 5.618 10.454 12.374 11.876 24.463 0.521 4.219 0.569 10.903 0.142 12.681-0.687 2.797-1.896 4.338-3.911 4.978-1.967 0.64-4.551-0.261-11.046-3.816-11.378-6.235-17.161-8.629-24.415-10.051-4.432-0.877-11.046-1.09-15.786-0.474-17.802 2.252-35.248 11.568-47.384 25.316-14.317 16.213-19.745 35.413-15.55 55.04 5.405 25.126 24.486 46.957 47.811 54.732 6.589 2.18 11.709 2.986 19.176 2.986 7.064 0 13.179-0.829 20.385-2.749 24.462-6.543 49.588-21.547 66.299-39.609 20.409-22.092 36.291-53.405 41.672-82.205 1.043-5.594 1.256-7.277 1.706-13.44l0.498-7.04-0.498-6.826c-0.474-6.732-0.498-6.922-1.92-13.18-1.351-5.902-1.635-6.826-3.935-12.681-2.157-5.571-2.868-7.04-5.76-12.255-8.58-15.431-20.93-29.037-36.337-40.083-18.489-13.25-39.254-20.978-62.365-23.182-8.438-0.83-17.801-0.83-26.619-0.024z"/><path d="m716.33 292.03c-22.424 2.37-42.762 10.05-60.777 22.898-15.454 11.022-27.946 24.794-36.527 40.272-2.868 5.168-3.603 6.732-5.736 12.208-2.3 5.949-2.513 6.637-3.959 13.037-1.517 6.684-1.541 6.826-1.944 13.131-0.379 6.092-0.379 6.709 0.024 12.919 0.569 8.794 2.086 17.375 4.741 26.785 8.107 28.587 25.339 57.434 45.511 76.255 19.579 18.252 49.185 32.735 72.178 35.319 3.84 0.426 11.662 0.426 15.289-0.024 28.017-3.366 53.309-27.899 59.472-57.719 2.157-10.382 1.565-21.049-1.659-30.933-4.717-14.317-15.668-28.065-29.606-37.144-9.742-6.352-20.978-10.524-32.118-11.946-4.623-0.569-11.544-0.356-15.645 0.474-7.111 1.469-12.776 3.745-22.352 9.007-8.557 4.693-10.928 5.57-13.109 4.883-3.271-1.043-4.503-5.31-3.887-13.63 0.877-12.397 3.295-19.413 8.628-25.173 6.685-7.206 18.868-12.089 34.276-13.701 5.997-0.64 15.407-0.403 21.215 0.569 16.45 2.702 29.7 9.885 43.14 23.372 16.854 16.901 32.711 43.804 40.605 68.859 8.13 25.814 7.609 48.498-1.873 81.897-8.675 30.53-21.262 47.715-47.384 64.734-9.315 6.092-19.366 11.805-41.6 23.68-30.459 16.261-44.966 24.581-61.985 35.485-27.141 17.398-49.209 35.034-64.118 51.295-10.288 11.188-16.925 21.143-22.021 33.09-1.375 3.224-2.513 5.926-2.513 6.045 0 0.094-0.64 2.228-1.398 4.74-1.731 5.547-3.437 13.914-3.935 19.129-0.664 7.088-0.403 15.265 0.735 22.116 0.877 5.333 1.659 7.585 3.271 9.268 2.038 2.181 5.855 2.821 7.988 1.327 1.659-1.138 3.105-3.603 7.941-13.345 6.613-13.393 10.951-20.551 18.204-30.009 10.406-13.558 24.937-26.904 40.794-37.499 10.146-6.779 19.011-11.212 25.411-12.753l3.366-0.806 2.086 0.356c1.137 0.213 2.086 0.379 2.109 0.403 0 0.024 0.522 0.711 1.138 1.517 1.09 1.446 1.138 1.564 1.399 3.911 0.545 4.551-0.403 10.501-3.983 24.723-3.366 13.298-4.195 17.967-3.982 21.807 0.19 2.963 0.972 4.552 2.584 5.192 4.812 1.943 13.392-5.429 22.115-19.035 2.537-3.911 5.239-8.485 12.113-20.408 20.717-35.935 32.735-48.403 61.985-64.403 2.868-1.565 6.708-3.627 8.533-4.575 20.125-10.525 29.962-16.664 39.704-24.818 21.547-17.991 40.344-46.151 52.978-79.36 14.744-38.756 17.422-76.16 8.415-117.26-6.637-30.246-19.414-60.563-35.39-83.959-18.56-27.212-43.733-47.786-73.458-60.065-25.102-10.382-52.574-14.696-76.989-12.136z"/><path d="m505.84 394.67c-6.756 0.877-12.231 4.172-18.11 10.88-4.622 5.262-8.51 11.283-17.161 26.69-12.445 22.187-17.351 30.365-24.486 40.818-14.91 21.855-30.104 37.049-51.959 51.959-9.955 6.779-19.271 12.42-36.195 21.878-10.667 5.973-13.962 7.87-18.489 10.619-14.317 8.723-21.523 16.427-23.609 25.245-0.664 2.773-0.664 13.772 0 16.592 1.683 7.23 6.542 13.346 16.142 20.196 5.096 3.65 11.852 7.68 27.733 16.545 44.706 24.984 65.683 42.69 86.329 72.842 7.111 10.406 12.634 19.603 25.245 42.003 5.902 10.453 9.197 15.857 12.349 20.266 6.732 9.411 12.682 14.222 19.698 16.024 4.125 1.043 12.705 1.114 17.043 0.095 7.088-1.636 13.25-6.59 20.053-16.119 3.769-5.286 6.922-10.501 15.479-25.789 23.372-41.766 38.566-61.227 62.175-79.645 12.468-9.742 25.292-17.92 48.592-30.981 10.24-5.736 13.061-7.371 17.897-10.334 14.743-9.008 21.641-16.309 23.609-24.984 0.379-1.73 0.45-2.939 0.45-8.415-0.024-5.736-0.071-6.613-0.522-8.415-1.848-7.324-6.826-13.511-16.308-20.266-5.143-3.698-10.263-6.756-24.889-14.934-30.269-16.924-45.653-27.259-60.136-40.415-16.427-14.933-30.957-34.654-48-65.185-6.471-11.615-11.093-19.698-13.345-23.372-8.913-14.53-16.19-21.333-24.984-23.371-1.778-0.403-3.081-0.498-7.609-0.569-2.986-0.024-6.139 0.023-6.992 0.142z"/><path d="m313.06 791.21c-1.043 0.237-2.181 1.541-3.864 4.504-3.176 5.594-4.812 7.229-10.406 10.453-3.2 1.849-3.65 2.181-4.314 3.271-0.64 1.043-0.687 2.157-0.166 3.248 0.45 0.971 1.185 1.54 4.243 3.294 5.784 3.343 7.396 5.026 11.236 11.71 1.754 3.01 3.034 3.887 5.001 3.366 1.161-0.308 2.204-1.47 3.793-4.267 3.366-5.949 4.717-7.3 10.714-10.832 1.659-0.972 3.342-2.134 3.721-2.584 1.351-1.517 1.185-3.745-0.332-5.001-0.426-0.356-1.896-1.28-3.247-2.063-4.883-2.773-7.111-4.812-9.434-8.652-2.726-4.503-3.532-5.688-4.077-6.02-0.688-0.427-1.991-0.64-2.868-0.427z"/><path d="m708.62 791.32c-1.043 0.474-1.541 1.091-3.556 4.504-3.271 5.57-4.74 7.016-10.666 10.501-3.579 2.109-4.385 2.963-4.385 4.575 0 1.943 0.877 2.844 5.238 5.333 5.002 2.868 6.945 4.835 9.813 9.837 2.063 3.603 2.94 4.646 4.172 4.978 2.134 0.569 3.319-0.332 5.547-4.267 3.224-5.689 5.191-7.68 10.761-10.809 3.058-1.73 4.196-2.749 4.409-3.982 0.403-2.062-0.592-3.39-4.053-5.333-6.068-3.414-7.704-5.002-10.975-10.691-1.659-2.844-2.583-4.1-3.342-4.503-0.735-0.38-2.252-0.475-2.963-0.143z"/><path d="m509.84 818.61c-4.48 0.9-9.34 5.096-13.606 11.733-6.756 10.501-12.469 27.638-16.806 50.299-2.892 15.028-3.271 21.333-1.683 27.639 2.37 9.363 12.563 21.096 22.755 26.192 8.107 4.054 14.91 4.054 22.993 0 4.717-2.37 7.964-4.835 12.373-9.41 2.702-2.773 5.191-5.95 6.756-8.557 5.072-8.534 5.641-14.246 2.915-30.341-2.346-13.795-6.115-28.918-9.695-38.755-6.162-16.925-14.174-27.378-22.068-28.824-1.991-0.379-1.967-0.379-3.934 0.024z"/></g></svg>
