<svg width="84" height="84" viewBox="0 0 84 84" fill="none" xmlns="http://www.w3.org/2000/svg">
<path d="M8.01634 9.01853L10.0396 19.2035C10.2004 20.0131 10.6319 20.7439 11.2631 21.2758L25.8756 33.5883C26.4141 34.0421 26.691 34.5059 26.491 34.6189L13.6086 41.241C12.989 41.5325 12.989 42.4139 13.6086 42.7055L25.3569 48.7447C25.9832 49.0667 26.5565 49.3652 26.6369 49.4124L12.462 60.9052C11.8189 61.4266 11.3607 62.1413 11.1554 62.9435L8.08406 74.9433C8.05154 75.0704 8.05266 75.2037 8.08732 75.3302C8.12198 75.4567 8.18897 75.572 8.28171 75.6647C8.37446 75.7575 8.48975 75.8245 8.61625 75.8591C8.74274 75.8938 8.87608 75.8949 9.00314 75.8624L21.003 72.791C21.8051 72.5857 22.5198 72.1276 23.0413 71.4844L33.7311 58.2998C34.1745 57.7528 34.5725 57.3746 34.6189 57.4555L41.241 70.338C41.5325 70.9576 42.4139 70.9576 42.7055 70.338L48.7447 58.5895C49.0667 57.9632 49.4187 57.293 49.5365 57.0957L62.6707 72.6833C63.2025 73.3145 63.9333 73.746 64.7429 73.9068L74.9279 75.9301C75.0654 75.9574 75.2075 75.9504 75.3416 75.9097C75.4757 75.869 75.5977 75.7959 75.6968 75.6968C75.7959 75.5977 75.869 75.4757 75.9097 75.3416C75.9504 75.2075 75.9574 75.0654 75.9301 74.9279L73.9068 64.7429C73.746 63.9333 73.3145 63.2025 72.6833 62.6707L58.0708 50.3581C57.5323 49.9044 57.2554 49.4406 57.4555 49.3277L70.338 42.7055C70.9576 42.4139 70.9576 41.5325 70.338 41.241L58.5895 35.2018C57.9632 34.8799 57.3899 34.5813 57.3094 34.5341L71.4844 23.0413C72.1276 22.5198 72.5857 21.8051 72.791 21.003L75.8624 9.00314C75.8949 8.87608 75.8938 8.74274 75.8591 8.61624C75.8245 8.48975 75.7575 8.37446 75.6647 8.28171C75.572 8.18897 75.4567 8.12197 75.3302 8.08732C75.2037 8.05266 75.0704 8.05154 74.9433 8.08406L62.9434 11.1554C62.1413 11.3607 61.4266 11.8189 60.9052 12.462L50.2154 25.6465C49.7719 26.1935 49.374 26.5718 49.3277 26.4909L42.7055 13.6084C42.4139 12.9888 41.5325 12.9888 41.241 13.6084L35.2018 25.3569C34.8799 25.9832 34.5278 26.6534 34.4099 26.8507L21.2758 11.2631C20.7439 10.6319 20.0131 10.2004 19.2035 10.0396L9.01852 8.01634C8.88106 7.98903 8.73899 7.99604 8.60488 8.03674C8.47078 8.07744 8.34877 8.15057 8.24967 8.24967C8.15057 8.34877 8.07744 8.47077 8.03674 8.60488C7.99604 8.73899 7.98903 8.88106 8.01634 9.01853Z" fill="white"/>
</svg>
