<svg width="84" height="84" viewBox="0 0 84 84" fill="none" xmlns="http://www.w3.org/2000/svg">
<path d="M73.1434 10.2908L48.0295 38.3463C47.2544 39.2121 46.8259 40.3334 46.8259 41.4954V64.8793C46.8259 65.4514 46.7132 66.0179 46.4942 66.5464C46.2752 67.0749 45.9542 67.5551 45.5495 67.9595L38.4506 75.054C38.346 75.1586 38.2127 75.2297 38.0677 75.2585C37.9226 75.2874 37.7723 75.2725 37.6357 75.2159C37.4991 75.1593 37.3823 75.0635 37.3002 74.9405C37.218 74.8175 37.1742 74.673 37.1742 74.5251V41.4957C37.1742 40.3337 36.7457 39.2125 35.9706 38.3467L10.8567 10.2908C10.7529 10.1748 10.6848 10.0312 10.6608 9.8773C10.6368 9.72344 10.6578 9.5659 10.7213 9.42373C10.7849 9.28155 10.8882 9.16082 11.0189 9.07609C11.1496 8.99137 11.302 8.94629 11.4577 8.94629H72.5424C72.6981 8.94629 72.8505 8.99137 72.9812 9.07609C73.1119 9.16082 73.2152 9.28155 73.2788 9.42373C73.3423 9.5659 73.3633 9.72343 73.3393 9.8773C73.3153 10.0312 73.2472 10.1748 73.1434 10.2908Z" fill="white"/>
<path d="M57.302 27.9499L50.5927 34.6592C50.3703 34.8816 50.0686 35.0066 49.7541 35.0066C49.4395 35.0066 49.1378 34.8816 48.9154 34.6592L42.2061 27.9499C41.9837 27.7275 41.682 27.6025 41.3675 27.6025C41.0529 27.6025 40.7512 27.7275 40.5288 27.9499L33.8195 34.6592C33.5971 34.8816 33.4722 35.1833 33.4722 35.4979C33.4722 35.8124 33.5971 36.1141 33.8195 36.3365L40.5288 43.0458C40.7512 43.2682 40.8762 43.5699 40.8762 43.8845C40.8762 44.199 40.7512 44.5007 40.5288 44.7231L33.8195 51.4324C33.5971 51.6548 33.4722 51.9565 33.4722 52.271C33.4722 52.5856 33.5971 52.8873 33.8195 53.1097L40.5288 59.819C40.7512 60.0414 41.0529 60.1664 41.3675 60.1664C41.682 60.1664 41.9837 60.0414 42.2061 59.819L48.9154 53.1097C49.1378 52.8873 49.4395 52.7623 49.7541 52.7623C50.0686 52.7623 50.3703 52.8873 50.5927 53.1097L57.302 59.819C57.5244 60.0414 57.8261 60.1664 58.1407 60.1664C58.4552 60.1664 58.7569 60.0414 58.9793 59.819L65.6886 53.1097C65.911 52.8873 66.036 52.5856 66.036 52.271C66.036 51.9565 65.911 51.6548 65.6886 51.4324L58.9793 44.7231C58.7569 44.5007 58.6319 44.199 58.6319 43.8845C58.6319 43.5699 58.7569 43.2682 58.9793 43.0458L65.6886 36.3365C65.911 36.1141 66.036 35.8124 66.036 35.4979C66.036 35.1833 65.911 34.8816 65.6886 34.6592L58.9793 27.9499C58.7569 27.7275 58.4552 27.6025 58.1407 27.6025C57.8261 27.6025 57.5244 27.7275 57.302 27.9499Z" fill="#EF4207"/>
</svg>
