<svg width="140" height="180" viewBox="0 0 140 180" fill="none" xmlns="http://www.w3.org/2000/svg">
<path opacity="0.4" d="M129.786 -24.6916L64.1721 -136.918C62.7783 -139.302 58.3165 -139.286 54.2064 -136.883L-169.055 -6.35144C-173.165 -3.94841 -175.367 -0.0678572 -173.973 2.31603L-108.359 114.542C-106.965 116.926 -102.503 116.911 -98.3933 114.508L124.868 -16.0241C128.978 -18.4271 131.18 -22.3077 129.786 -24.6916Z" fill="#1A1A1A" fill-opacity="0.2"/>
<path opacity="0.2" d="M-35.2664 244.751L67.619 174.807C69.8045 173.322 69.9206 169.682 67.8783 166.678L-43.0566 3.49524C-45.0989 0.491141 -48.5261 -0.739759 -50.7116 0.745965L-153.597 70.6897C-155.782 72.1754 -155.899 75.8151 -153.856 78.8192L-42.9213 242.002C-40.8791 245.006 -37.4518 246.237 -35.2664 244.751Z" fill="#1A1A1A" fill-opacity="0.2"/>
</svg>
